Cutive.ufo
<glyph name="exclam" format="1">
  <advance width="728"/>
  <unicode hex="0021"/>
  <outline>
    <contour>
      <point x="502" y="1587" type="curve" smooth="yes"/>
      <point x="502" y="1249"/>
      <point x="428" y="917"/>
      <point x="428" y="557" type="curve" smooth="yes"/>
      <point x="428" y="523"/>
      <point x="400" y="496"/>
      <point x="367" y="496" type="curve" smooth="yes"/>
      <point x="333" y="496"/>
      <point x="305" y="523"/>
      <point x="305" y="557" type="curve" smooth="yes"/>
      <point x="305" y="920"/>
      <point x="231" y="1249"/>
      <point x="231" y="1591" type="curve" smooth="yes"/>
      <point x="231" y="1685"/>
      <point x="288" y="1739"/>
      <point x="367" y="1739" type="curve" smooth="yes"/>
      <point x="448" y="1739"/>
      <point x="502" y="1685"/>
    </contour>
    <contour>
      <point x="365" y="-25" type="curve" smooth="yes"/>
      <point x="265" y="-25"/>
      <point x="188" y="52"/>
      <point x="188" y="152" type="curve" smooth="yes"/>
      <point x="188" y="252"/>
      <point x="265" y="328"/>
      <point x="365" y="328" type="curve" smooth="yes"/>
      <point x="465" y="328"/>
      <point x="541" y="252"/>
      <point x="541" y="152" type="curve" smooth="yes"/>
      <point x="541" y="52"/>
      <point x="465" y="-25"/>
    </contour>
  </outline>
</glyph>
<glyph name="quotedbl" format="1">
  <advance width="879"/>
  <unicode hex="0022"/>
  <outline>
    <contour>
      <point x="689" y="1377" type="line" smooth="yes"/>
      <point x="685" y="1338"/>
      <point x="650" y="1319"/>
      <point x="625" y="1319" type="curve" smooth="yes"/>
      <point x="599" y="1319"/>
      <point x="563" y="1338"/>
      <point x="559" y="1377" type="curve" smooth="yes"/>
      <point x="505" y="1924" type="line"/>
      <point x="505" y="1924"/>
      <point x="504" y="1935"/>
      <point x="504" y="1941" type="curve" smooth="yes"/>
      <point x="504" y="2020"/>
      <point x="562" y="2058"/>
      <point x="620" y="2058" type="curve" smooth="yes"/>
      <point x="681" y="2058"/>
      <point x="742" y="2017"/>
      <point x="742" y="1938" type="curve" smooth="yes"/>
      <point x="742" y="1932"/>
      <point x="741" y="1927"/>
      <point x="741" y="1922" type="curve" smooth="yes"/>
    </contour>
    <contour>
      <point x="363" y="1377" type="line" smooth="yes"/>
      <point x="359" y="1338"/>
      <point x="324" y="1319"/>
      <point x="299" y="1319" type="curve" smooth="yes"/>
      <point x="273" y="1319"/>
      <point x="237" y="1338"/>
      <point x="233" y="1377" type="curve" smooth="yes"/>
      <point x="179" y="1924" type="line" smooth="yes"/>
      <point x="178" y="1929"/>
      <point x="178" y="1935"/>
      <point x="178" y="1941" type="curve" smooth="yes"/>
      <point x="178" y="2020"/>
      <point x="236" y="2058"/>
      <point x="294" y="2058" type="curve" smooth="yes"/>
      <point x="355" y="2058"/>
      <point x="416" y="2017"/>
      <point x="416" y="1938" type="curve" smooth="yes"/>
      <point x="416" y="1932"/>
      <point x="416" y="1927"/>
      <point x="415" y="1922" type="curve" smooth="yes"/>
    </contour>
  </outline>
</glyph>
<glyph name="quotesingle" format="1">
  <advance width="633"/>
  <unicode hex="0027"/>
  <outline>
    <contour>
      <point x="363" y="1377" type="line" smooth="yes"/>
      <point x="359" y="1338"/>
      <point x="324" y="1319"/>
      <point x="299" y="1319" type="curve" smooth="yes"/>
      <point x="273" y="1319"/>
      <point x="237" y="1338"/>
      <point x="233" y="1377" type="curve" smooth="yes"/>
      <point x="179" y="1924" type="line" smooth="yes"/>
      <point x="178" y="1929"/>
      <point x="178" y="1935"/>
      <point x="178" y="1941" type="curve" smooth="yes"/>
      <point x="178" y="2020"/>
      <point x="236" y="2058"/>
      <point x="294" y="2058" type="curve" smooth="yes"/>
      <point x="355" y="2058"/>
      <point x="416" y="2017"/>
      <point x="416" y="1938" type="curve" smooth="yes"/>
      <point x="416" y="1932"/>
      <point x="416" y="1927"/>
      <point x="415" y="1922" type="curve" smooth="yes"/>
    </contour>
  </outline>
</glyph>
<glyph name="asterisk" format="1">
  <advance width="1649"/>
  <unicode hex="002A"/>
  <outline>
    <contour>
      <point x="1402" y="1104" type="line"/>
      <point x="1462" y="1104"/>
      <point x="1492" y="1042"/>
      <point x="1492" y="983" type="curve" smooth="yes"/>
      <point x="1492" y="924"/>
      <point x="1462" y="862"/>
      <point x="1402" y="862" type="curve"/>
      <point x="1040" y="905" type="line"/>
      <point x="993" y="909"/>
      <point x="966" y="939"/>
      <point x="966" y="983" type="curve" smooth="yes"/>
      <point x="966" y="1027"/>
      <point x="993" y="1057"/>
      <point x="1040" y="1061" type="curve"/>
    </contour>
    <contour>
      <point x="247" y="862" type="line"/>
      <point x="187" y="862"/>
      <point x="157" y="924"/>
      <point x="157" y="983" type="curve" smooth="yes"/>
      <point x="157" y="1042"/>
      <point x="187" y="1104"/>
      <point x="247" y="1104" type="curve"/>
      <point x="609" y="1061" type="line"/>
      <point x="656" y="1057"/>
      <point x="683" y="1027"/>
      <point x="683" y="983" type="curve" smooth="yes"/>
      <point x="683" y="939"/>
      <point x="656" y="909"/>
      <point x="609" y="905" type="curve"/>
    </contour>
    <contour>
      <point x="1226" y="504" type="curve" smooth="yes"/>
      <point x="1226" y="435"/>
      <point x="1146" y="381"/>
      <point x="1078" y="381" type="curve" smooth="yes"/>
      <point x="1043" y="381"/>
      <point x="1017" y="396"/>
      <point x="1005" y="422" type="curve" smooth="yes"/>
      <point x="863" y="758" type="line" smooth="yes"/>
      <point x="858" y="770"/>
      <point x="855" y="783"/>
      <point x="855" y="797" type="curve" smooth="yes"/>
      <point x="855" y="840"/>
      <point x="892" y="870"/>
      <point x="933" y="870" type="curve" smooth="yes"/>
      <point x="965" y="870"/>
      <point x="982" y="857"/>
      <point x="999" y="834" type="curve" smooth="yes"/>
      <point x="1216" y="541" type="line"/>
      <point x="1223" y="527"/>
      <point x="1226" y="515"/>
    </contour>
    <contour>
      <point x="423" y="1462" type="curve" smooth="yes"/>
      <point x="423" y="1532"/>
      <point x="501" y="1585"/>
      <point x="571" y="1585" type="curve" smooth="yes"/>
      <point x="605" y="1585"/>
      <point x="629" y="1571"/>
      <point x="644" y="1544" type="curve"/>
      <point x="786" y="1208" type="line" smooth="yes"/>
      <point x="791" y="1196"/>
      <point x="794" y="1183"/>
      <point x="794" y="1169" type="curve" smooth="yes"/>
      <point x="794" y="1137"/>
      <point x="775" y="1119"/>
      <point x="755" y="1106" type="curve"/>
      <point x="734" y="1098" type="line" smooth="yes"/>
      <point x="727" y="1095"/>
      <point x="721" y="1094"/>
      <point x="714" y="1094" type="curve" smooth="yes"/>
      <point x="691" y="1094"/>
      <point x="669" y="1107"/>
      <point x="650" y="1133" type="curve" smooth="yes"/>
      <point x="433" y="1425" type="line"/>
      <point x="426" y="1439"/>
      <point x="423" y="1451"/>
    </contour>
    <contour>
      <point x="569" y="381" type="curve" smooth="yes"/>
      <point x="498" y="381"/>
      <point x="421" y="434"/>
      <point x="421" y="504" type="curve" smooth="yes"/>
      <point x="421" y="515"/>
      <point x="424" y="527"/>
      <point x="431" y="541" type="curve"/>
      <point x="648" y="834" type="line" smooth="yes"/>
      <point x="665" y="857"/>
      <point x="680" y="870"/>
      <point x="712" y="870" type="curve" smooth="yes"/>
      <point x="754" y="870"/>
      <point x="792" y="840"/>
      <point x="792" y="797" type="curve" smooth="yes"/>
      <point x="792" y="783"/>
      <point x="789" y="770"/>
      <point x="784" y="758" type="curve" smooth="yes"/>
      <point x="642" y="422" type="line"/>
      <point x="627" y="395"/>
      <point x="603" y="381"/>
    </contour>
    <contour>
      <point x="1076" y="1585" type="curve" smooth="yes"/>
      <point x="1145" y="1585"/>
      <point x="1224" y="1529"/>
      <point x="1224" y="1462" type="curve" smooth="yes"/>
      <point x="1224" y="1451"/>
      <point x="1221" y="1439"/>
      <point x="1214" y="1425" type="curve"/>
      <point x="997" y="1133" type="line" smooth="yes"/>
      <point x="978" y="1107"/>
      <point x="956" y="1094"/>
      <point x="931" y="1094" type="curve" smooth="yes"/>
      <point x="890" y="1094"/>
      <point x="853" y="1127"/>
      <point x="853" y="1169" type="curve" smooth="yes"/>
      <point x="853" y="1183"/>
      <point x="856" y="1196"/>
      <point x="861" y="1208" type="curve" smooth="yes"/>
      <point x="1003" y="1544" type="line" smooth="yes"/>
      <point x="1015" y="1570"/>
      <point x="1041" y="1585"/>
    </contour>
  </outline>
</glyph>
<glyph name="plus" format="1">
  <advance width="1238"/>
  <unicode hex="002B"/>
  <outline>
    <contour>
      <point x="1073" y="787" type="line" smooth="yes"/>
      <point x="1114" y="787"/>
      <point x="1147" y="754"/>
      <point x="1147" y="714" type="curve" smooth="yes"/>
      <point x="1147" y="673"/>
      <point x="1114" y="640"/>
      <point x="1073" y="640" type="curve" smooth="yes"/>
      <point x="699" y="640" type="line"/>
      <point x="699" y="257" type="line" smooth="yes"/>
      <point x="699" y="213"/>
      <point x="664" y="178"/>
      <point x="620" y="178" type="curve" smooth="yes"/>
      <point x="576" y="178"/>
      <point x="541" y="213"/>
      <point x="541" y="257" type="curve" smooth="yes"/>
      <point x="541" y="640" type="line"/>
      <point x="165" y="640" type="line" smooth="yes"/>
      <point x="124" y="640"/>
      <point x="92" y="673"/>
      <point x="92" y="714" type="curve" smooth="yes"/>
      <point x="92" y="754"/>
      <point x="124" y="787"/>
      <point x="165" y="787" type="curve" smooth="yes"/>
      <point x="541" y="787" type="line"/>
      <point x="541" y="1177" type="line" smooth="yes"/>
      <point x="541" y="1221"/>
      <point x="576" y="1256"/>
      <point x="620" y="1256" type="curve" smooth="yes"/>
      <point x="664" y="1256"/>
      <point x="699" y="1221"/>
      <point x="699" y="1177" type="curve" smooth="yes"/>
      <point x="699" y="787" type="line"/>
    </contour>
  </outline>
</glyph>
<glyph name="comma" format="1">
  <advance width="714"/>
  <unicode hex="002C"/>
  <outline>
    <contour>
      <point x="353" y="280" type="curve" smooth="yes"/>
      <point x="463" y="280"/>
      <point x="558" y="206"/>
      <point x="558" y="58" type="curve" smooth="yes"/>
      <point x="558" y="-153"/>
      <point x="435" y="-287"/>
      <point x="284" y="-363" type="curve" smooth="yes"/>
      <point x="268" y="-372"/>
      <point x="251" y="-376"/>
      <point x="237" y="-376" type="curve" smooth="yes"/>
      <point x="194" y="-376"/>
      <point x="162" y="-343"/>
      <point x="162" y="-308" type="curve" smooth="yes"/>
      <point x="162" y="-290"/>
      <point x="171" y="-271"/>
      <point x="193" y="-256" type="curve" smooth="yes"/>
      <point x="270" y="-205"/>
      <point x="371" y="-139"/>
      <point x="371" y="-25" type="curve"/>
      <point x="263" y="-25"/>
      <point x="183" y="23"/>
      <point x="183" y="125" type="curve" smooth="yes"/>
      <point x="183" y="228"/>
      <point x="265" y="280"/>
    </contour>
  </outline>
</glyph>
<glyph name="hyphen" format="1">
  <advance width="1333"/>
  <unicode hex="002D"/>
  <outline>
    <contour>
      <point x="194" y="715" type="curve" smooth="yes"/>
      <point x="194" y="770"/>
      <point x="240" y="817"/>
      <point x="296" y="817" type="curve" smooth="yes"/>
      <point x="1038" y="817" type="line" smooth="yes"/>
      <point x="1094" y="817"/>
      <point x="1140" y="770"/>
      <point x="1140" y="715" type="curve" smooth="yes"/>
      <point x="1140" y="658"/>
      <point x="1095" y="612"/>
      <point x="1038" y="612" type="curve" smooth="yes"/>
      <point x="296" y="612" type="line" smooth="yes"/>
      <point x="239" y="612"/>
      <point x="194" y="658"/>
    </contour>
  </outline>
</glyph>
<glyph name="period" format="1">
  <advance width="806"/>
  <unicode hex="002E"/>
  <outline>
    <contour>
      <point x="403" y="-127" type="curve" smooth="yes"/>
      <point x="281" y="-127"/>
      <point x="192" y="-37"/>
      <point x="192" y="84" type="curve" smooth="yes"/>
      <point x="192" y="206"/>
      <point x="282" y="295"/>
      <point x="403" y="295" type="curve" smooth="yes"/>
      <point x="525" y="295"/>
      <point x="614" y="205"/>
      <point x="614" y="84" type="curve" smooth="yes"/>
      <point x="614" y="-38"/>
      <point x="524" y="-127"/>
    </contour>
  </outline>
</glyph>
<glyph name="zero" format="1">
  <advance width="1422"/>
  <unicode hex="0030"/>
  <outline>
    <contour>
      <point x="120" y="856" type="curve" smooth="yes"/>
      <point x="120" y="1290"/>
      <point x="270" y="1739"/>
      <point x="711" y="1739" type="curve" smooth="yes"/>
      <point x="1152" y="1739"/>
      <point x="1302" y="1289"/>
      <point x="1302" y="856" type="curve" smooth="yes"/>
      <point x="1302" y="422"/>
      <point x="1152" y="-25"/>
      <point x="711" y="-25" type="curve" smooth="yes"/>
      <point x="270" y="-25"/>
      <point x="120" y="422"/>
    </contour>
    <contour>
      <point x="335" y="856" type="curve" smooth="yes"/>
      <point x="335" y="554"/>
      <point x="407" y="141"/>
      <point x="711" y="141" type="curve" smooth="yes"/>
      <point x="1013" y="141"/>
      <point x="1087" y="561"/>
      <point x="1087" y="856" type="curve" smooth="yes"/>
      <point x="1087" y="1153"/>
      <point x="1009" y="1569"/>
      <point x="711" y="1569" type="curve" smooth="yes"/>
      <point x="414" y="1569"/>
      <point x="335" y="1146"/>
    </contour>
  </outline>
</glyph>
<glyph name="eight" format="1">
  <advance width="1316"/>
  <unicode hex="0038"/>
  <outline>
    <contour>
      <point x="627" y="1737" type="curve" smooth="yes"/>
      <point x="895" y="1737"/>
      <point x="1145" y="1600"/>
      <point x="1145" y="1337" type="curve" smooth="yes"/>
      <point x="1145" y="1107"/>
      <point x="983" y="978"/>
      <point x="829" y="901" type="curve"/>
      <point x="1019" y="800"/>
      <point x="1216" y="703"/>
      <point x="1216" y="418" type="curve" smooth="yes"/>
      <point x="1216" y="110"/>
      <point x="968" y="-25"/>
      <point x="661" y="-25" type="curve" smooth="yes"/>
      <point x="337" y="-25"/>
      <point x="100" y="119"/>
      <point x="100" y="442" type="curve" smooth="yes"/>
      <point x="100" y="677"/>
      <point x="251" y="805"/>
      <point x="407" y="883" type="curve"/>
      <point x="247" y="981"/>
      <point x="137" y="1084"/>
      <point x="137" y="1313" type="curve" smooth="yes"/>
      <point x="137" y="1578"/>
      <point x="355" y="1737"/>
    </contour>
    <contour>
      <point x="668" y="145" type="curve" smooth="yes"/>
      <point x="859" y="145"/>
      <point x="1012" y="236"/>
      <point x="1012" y="418" type="curve" smooth="yes"/>
      <point x="1012" y="673"/>
      <point x="715" y="713"/>
      <point x="549" y="805" type="curve"/>
      <point x="412" y="727"/>
      <point x="301" y="616"/>
      <point x="301" y="430" type="curve" smooth="yes"/>
      <point x="301" y="231"/>
      <point x="469" y="145"/>
    </contour>
    <contour>
      <point x="639" y="1581" type="curve" smooth="yes"/>
      <point x="471" y="1581"/>
      <point x="336" y="1492"/>
      <point x="336" y="1327" type="curve" smooth="yes"/>
      <point x="336" y="1126"/>
      <point x="547" y="1039"/>
      <point x="688" y="973" type="curve"/>
      <point x="830" y="1042"/>
      <point x="940" y="1146"/>
      <point x="940" y="1325" type="curve" smooth="yes"/>
      <point x="940" y="1499"/>
      <point x="809" y="1581"/>
    </contour>
  </outline>
</glyph>
<glyph name="colon" format="1">
  <advance width="725"/>
  <unicode hex="003A"/>
  <outline>
    <contour>
      <point x="362" y="-70" type="curve" smooth="yes"/>
      <point x="237" y="-70"/>
      <point x="147" y="21"/>
      <point x="147" y="145" type="curve" smooth="yes"/>
      <point x="147" y="269"/>
      <point x="239" y="360"/>
      <point x="362" y="360" type="curve" smooth="yes"/>
      <point x="485" y="360"/>
      <point x="577" y="267"/>
      <point x="577" y="145" type="curve" smooth="yes"/>
      <point x="577" y="21"/>
      <point x="485" y="-70"/>
    </contour>
    <contour>
      <point x="362" y="760" type="curve" smooth="yes"/>
      <point x="237" y="760"/>
      <point x="147" y="851"/>
      <point x="147" y="975" type="curve" smooth="yes"/>
      <point x="147" y="1099"/>
      <point x="239" y="1190"/>
      <point x="362" y="1190" type="curve" smooth="yes"/>
      <point x="485" y="1190"/>
      <point x="577" y="1097"/>
      <point x="577" y="975" type="curve" smooth="yes"/>
      <point x="577" y="851"/>
      <point x="485" y="760"/>
    </contour>
  </outline>
</glyph>
<glyph name="semicolon" format="1">
  <advance width="705"/>
  <unicode hex="003B"/>
  <outline>
    <contour>
      <point x="336" y="367" type="curve" smooth="yes"/>
      <point x="446" y="367"/>
      <point x="541" y="292"/>
      <point x="541" y="145" type="curve" smooth="yes"/>
      <point x="541" y="-67"/>
      <point x="418" y="-200"/>
      <point x="267" y="-276" type="curve" smooth="yes"/>
      <point x="251" y="-285"/>
      <point x="235" y="-289"/>
      <point x="220" y="-289" type="curve" smooth="yes"/>
      <point x="177" y="-289"/>
      <point x="145" y="-256"/>
      <point x="145" y="-222" type="curve" smooth="yes"/>
      <point x="145" y="-203"/>
      <point x="155" y="-184"/>
      <point x="176" y="-169" type="curve" smooth="yes"/>
      <point x="253" y="-118"/>
      <point x="354" y="-52"/>
      <point x="354" y="62" type="curve"/>
      <point x="246" y="62"/>
      <point x="166" y="109"/>
      <point x="166" y="212" type="curve" smooth="yes"/>
      <point x="166" y="315"/>
      <point x="249" y="367"/>
    </contour>
    <contour>
      <point x="355" y="760" type="curve" smooth="yes"/>
      <point x="230" y="760"/>
      <point x="140" y="851"/>
      <point x="140" y="975" type="curve" smooth="yes"/>
      <point x="140" y="1099"/>
      <point x="232" y="1190"/>
      <point x="355" y="1190" type="curve" smooth="yes"/>
      <point x="478" y="1190"/>
      <point x="570" y="1097"/>
      <point x="570" y="975" type="curve" smooth="yes"/>
      <point x="570" y="851"/>
      <point x="478" y="760"/>
    </contour>
  </outline>
</glyph>
<glyph name="equal" format="1">
  <advance width="1237"/>
  <unicode hex="003D"/>
  <outline>
    <contour>
      <point x="1072" y="213" type="line" smooth="yes"/>
      <point x="1130" y="213"/>
      <point x="1178" y="165"/>
      <point x="1178" y="107" type="curve" smooth="yes"/>
      <point x="1178" y="48"/>
      <point x="1130" y="1"/>
      <point x="1072" y="1" type="curve" smooth="yes"/>
      <point x="165" y="1" type="line" smooth="yes"/>
      <point x="106" y="1"/>
      <point x="59" y="48"/>
      <point x="59" y="107" type="curve" smooth="yes"/>
      <point x="59" y="165"/>
      <point x="106" y="213"/>
      <point x="165" y="213" type="curve" smooth="yes"/>
    </contour>
    <contour>
      <point x="1072" y="736" type="line" smooth="yes"/>
      <point x="1130" y="736"/>
      <point x="1178" y="688"/>
      <point x="1178" y="630" type="curve" smooth="yes"/>
      <point x="1178" y="571"/>
      <point x="1130" y="524"/>
      <point x="1072" y="524" type="curve" smooth="yes"/>
      <point x="165" y="524" type="line" smooth="yes"/>
      <point x="106" y="524"/>
      <point x="59" y="571"/>
      <point x="59" y="630" type="curve" smooth="yes"/>
      <point x="59" y="688"/>
      <point x="106" y="736"/>
      <point x="165" y="736" type="curve" smooth="yes"/>
    </contour>
  </outline>
</glyph>
<glyph name="A" format="1">
  <advance width="1990"/>
  <unicode hex="0041"/>
  <outline>
    <contour>
      <point x="13" y="84" type="curve" smooth="yes"/>
      <point x="13" y="134"/>
      <point x="34" y="176"/>
      <point x="85" y="176" type="curve" smooth="yes"/>
      <point x="224" y="176" type="line"/>
      <point x="886" y="1671" type="line" smooth="yes"/>
      <point x="906" y="1718"/>
      <point x="945" y="1763"/>
      <point x="1009" y="1763" type="curve" smooth="yes"/>
      <point x="1076" y="1763"/>
      <point x="1107" y="1717"/>
      <point x="1127" y="1667" type="curve" smooth="yes"/>
      <point x="1728" y="176" type="line"/>
      <point x="1906" y="176" type="line" smooth="yes"/>
      <point x="1957" y="176"/>
      <point x="1977" y="134"/>
      <point x="1977" y="84" type="curve" smooth="yes"/>
      <point x="1977" y="40"/>
      <point x="1951" y="0"/>
      <point x="1904" y="0" type="curve" smooth="yes"/>
      <point x="1259" y="0" type="line" smooth="yes"/>
      <point x="1212" y="0"/>
      <point x="1185" y="40"/>
      <point x="1185" y="84" type="curve" smooth="yes"/>
      <point x="1185" y="134"/>
      <point x="1206" y="176"/>
      <point x="1257" y="176" type="curve" smooth="yes"/>
      <point x="1476" y="176" type="line"/>
      <point x="1328" y="567" type="line"/>
      <point x="603" y="567" type="line"/>
      <point x="446" y="176" type="line"/>
      <point x="632" y="176" type="line" smooth="yes"/>
      <point x="683" y="176"/>
      <point x="704" y="134"/>
      <point x="704" y="84" type="curve" smooth="yes"/>
      <point x="704" y="40"/>
      <point x="677" y="0"/>
      <point x="630" y="0" type="curve" smooth="yes"/>
      <point x="87" y="0" type="line" smooth="yes"/>
      <point x="40" y="0"/>
      <point x="13" y="40"/>
    </contour>
    <contour>
      <point x="665" y="721" type="line"/>
      <point x="1271" y="721" type="line"/>
      <point x="978" y="1499" type="line"/>
    </contour>
  </outline>
</glyph>
<glyph name="H" format="1">
  <advance width="2046"/>
  <unicode hex="0048"/>
  <outline>
    <contour>
      <point x="49" y="84" type="curve" smooth="yes"/>
      <point x="49" y="134"/>
      <point x="70" y="176"/>
      <point x="121" y="176" type="curve" smooth="yes"/>
      <point x="344" y="176" type="line"/>
      <point x="344" y="1538" type="line"/>
      <point x="142" y="1538" type="line" smooth="yes"/>
      <point x="91" y="1538"/>
      <point x="70" y="1580"/>
      <point x="70" y="1630" type="curve" smooth="yes"/>
      <point x="70" y="1674"/>
      <point x="97" y="1714"/>
      <point x="144" y="1714" type="curve" smooth="yes"/>
      <point x="779" y="1714" type="line" smooth="yes"/>
      <point x="826" y="1714"/>
      <point x="852" y="1674"/>
      <point x="852" y="1630" type="curve" smooth="yes"/>
      <point x="852" y="1580"/>
      <point x="832" y="1538"/>
      <point x="781" y="1538" type="curve" smooth="yes"/>
      <point x="578" y="1538" type="line"/>
      <point x="578" y="963" type="line"/>
      <point x="1510" y="963" type="line"/>
      <point x="1510" y="1538" type="line"/>
      <point x="1307" y="1538" type="line" smooth="yes"/>
      <point x="1256" y="1538"/>
      <point x="1235" y="1580"/>
      <point x="1235" y="1630" type="curve" smooth="yes"/>
      <point x="1235" y="1674"/>
      <point x="1262" y="1714"/>
      <point x="1309" y="1714" type="curve" smooth="yes"/>
      <point x="1923" y="1714" type="line" smooth="yes"/>
      <point x="1970" y="1714"/>
      <point x="1997" y="1674"/>
      <point x="1997" y="1630" type="curve" smooth="yes"/>
      <point x="1997" y="1580"/>
      <point x="1976" y="1538"/>
      <point x="1925" y="1538" type="curve" smooth="yes"/>
      <point x="1743" y="1538" type="line"/>
      <point x="1743" y="176" type="line"/>
      <point x="1925" y="176" type="line" smooth="yes"/>
      <point x="1976" y="176"/>
      <point x="1997" y="134"/>
      <point x="1997" y="84" type="curve" smooth="yes"/>
      <point x="1997" y="40"/>
      <point x="1970" y="0"/>
      <point x="1923" y="0" type="curve" smooth="yes"/>
      <point x="1309" y="0" type="line" smooth="yes"/>
      <point x="1262" y="0"/>
      <point x="1235" y="40"/>
      <point x="1235" y="84" type="curve" smooth="yes"/>
      <point x="1235" y="134"/>
      <point x="1256" y="176"/>
      <point x="1307" y="176" type="curve" smooth="yes"/>
      <point x="1510" y="176" type="line"/>
      <point x="1510" y="788" type="line"/>
      <point x="578" y="788" type="line"/>
      <point x="578" y="176" type="line"/>
      <point x="781" y="176" type="line" smooth="yes"/>
      <point x="832" y="176"/>
      <point x="852" y="134"/>
      <point x="852" y="84" type="curve" smooth="yes"/>
      <point x="852" y="40"/>
      <point x="826" y="0"/>
      <point x="779" y="0" type="curve" smooth="yes"/>
      <point x="123" y="0" type="line" smooth="yes"/>
      <point x="76" y="0"/>
      <point x="49" y="40"/>
    </contour>
  </outline>
</glyph>
<glyph name="I" format="1">
  <advance width="1008"/>
  <unicode hex="0049"/>
  <outline>
    <contour>
      <point x="74" y="84" type="curve" smooth="yes"/>
      <point x="74" y="134"/>
      <point x="94" y="176"/>
      <point x="145" y="176" type="curve" smooth="yes"/>
      <point x="389" y="176" type="line"/>
      <point x="389" y="1538" type="line"/>
      <point x="145" y="1538" type="line" smooth="yes"/>
      <point x="94" y="1538"/>
      <point x="74" y="1580"/>
      <point x="74" y="1630" type="curve" smooth="yes"/>
      <point x="74" y="1674"/>
      <point x="100" y="1714"/>
      <point x="147" y="1714" type="curve" smooth="yes"/>
      <point x="864" y="1714" type="line" smooth="yes"/>
      <point x="911" y="1714"/>
      <point x="938" y="1674"/>
      <point x="938" y="1630" type="curve" smooth="yes"/>
      <point x="938" y="1580"/>
      <point x="917" y="1538"/>
      <point x="866" y="1538" type="curve" smooth="yes"/>
      <point x="623" y="1538" type="line"/>
      <point x="623" y="176" type="line"/>
      <point x="866" y="176" type="line" smooth="yes"/>
      <point x="917" y="176"/>
      <point x="938" y="134"/>
      <point x="938" y="84" type="curve" smooth="yes"/>
      <point x="938" y="40"/>
      <point x="911" y="0"/>
      <point x="864" y="0" type="curve" smooth="yes"/>
      <point x="147" y="0" type="line" smooth="yes"/>
      <point x="100" y="0"/>
      <point x="74" y="40"/>
    </contour>
  </outline>
</glyph>
<glyph name="M" format="1">
  <advance width="2443"/>
  <unicode hex="004D"/>
  <outline>
    <contour>
      <point x="1653" y="84" type="curve" smooth="yes"/>
      <point x="1653" y="134"/>
      <point x="1674" y="176"/>
      <point x="1725" y="176" type="curve" smooth="yes"/>
      <point x="1907" y="176" type="line"/>
      <point x="1907" y="1235" type="line"/>
      <point x="1303" y="102" type="line"/>
      <point x="1290" y="67"/>
      <point x="1255" y="37"/>
      <point x="1209" y="37" type="curve" smooth="yes"/>
      <point x="1168" y="37"/>
      <point x="1133" y="63"/>
      <point x="1119" y="92" type="curve" smooth="yes"/>
      <point x="553" y="1249" type="line"/>
      <point x="553" y="176" type="line"/>
      <point x="756" y="176" type="line" smooth="yes"/>
      <point x="807" y="176"/>
      <point x="828" y="134"/>
      <point x="828" y="84" type="curve" smooth="yes"/>
      <point x="828" y="40"/>
      <point x="801" y="0"/>
      <point x="754" y="0" type="curve" smooth="yes"/>
      <point x="123" y="0" type="line" smooth="yes"/>
      <point x="76" y="0"/>
      <point x="49" y="40"/>
      <point x="49" y="84" type="curve" smooth="yes"/>
      <point x="49" y="134"/>
      <point x="70" y="176"/>
      <point x="121" y="176" type="curve" smooth="yes"/>
      <point x="344" y="176" type="line"/>
      <point x="344" y="1538" type="line"/>
      <point x="142" y="1538" type="line" smooth="yes"/>
      <point x="91" y="1538"/>
      <point x="70" y="1580"/>
      <point x="70" y="1630" type="curve" smooth="yes"/>
      <point x="70" y="1674"/>
      <point x="97" y="1714"/>
      <point x="144" y="1714" type="curve" smooth="yes"/>
      <point x="480" y="1714" type="line" smooth="yes"/>
      <point x="516" y="1714"/>
      <point x="535" y="1688"/>
      <point x="547" y="1663" type="curve" smooth="yes"/>
      <point x="1209" y="328" type="line"/>
      <point x="1915" y="1671" type="line" smooth="yes"/>
      <point x="1927" y="1694"/>
      <point x="1947" y="1714"/>
      <point x="1981" y="1714" type="curve" smooth="yes"/>
      <point x="2300" y="1714" type="line" smooth="yes"/>
      <point x="2347" y="1714"/>
      <point x="2374" y="1674"/>
      <point x="2374" y="1630" type="curve" smooth="yes"/>
      <point x="2374" y="1580"/>
      <point x="2353" y="1538"/>
      <point x="2302" y="1538" type="curve" smooth="yes"/>
      <point x="2120" y="1538" type="line"/>
      <point x="2120" y="176" type="line"/>
      <point x="2323" y="176" type="line" smooth="yes"/>
      <point x="2374" y="176"/>
      <point x="2394" y="134"/>
      <point x="2394" y="84" type="curve" smooth="yes"/>
      <point x="2394" y="40"/>
      <point x="2368" y="0"/>
      <point x="2321" y="0" type="curve" smooth="yes"/>
      <point x="1727" y="0" type="line" smooth="yes"/>
      <point x="1680" y="0"/>
      <point x="1653" y="40"/>
    </contour>
  </outline>
</glyph>
<glyph name="N" format="1">
  <advance width="2037"/>
  <unicode hex="004E"/>
  <outline>
    <contour>
      <point x="49" y="1630" type="curve" smooth="yes"/>
      <point x="49" y="1674"/>
      <point x="76" y="1714"/>
      <point x="123" y="1714" type="curve" smooth="yes"/>
      <point x="586" y="1714" type="line" smooth="yes"/>
      <point x="618" y="1714"/>
      <point x="633" y="1704"/>
      <point x="645" y="1679" type="curve"/>
      <point x="1524" y="426" type="line"/>
      <point x="1524" y="1538" type="line"/>
      <point x="1344" y="1538" type="line" smooth="yes"/>
      <point x="1293" y="1538"/>
      <point x="1272" y="1580"/>
      <point x="1272" y="1630" type="curve" smooth="yes"/>
      <point x="1272" y="1674"/>
      <point x="1299" y="1714"/>
      <point x="1346" y="1714" type="curve" smooth="yes"/>
      <point x="1928" y="1714" type="line" smooth="yes"/>
      <point x="1975" y="1714"/>
      <point x="2001" y="1674"/>
      <point x="2001" y="1630" type="curve" smooth="yes"/>
      <point x="2001" y="1580"/>
      <point x="1981" y="1538"/>
      <point x="1930" y="1538" type="curve" smooth="yes"/>
      <point x="1731" y="1538" type="line"/>
      <point x="1731" y="53" type="line" smooth="yes"/>
      <point x="1731" y="2"/>
      <point x="1690" y="-37"/>
      <point x="1641" y="-37" type="curve" smooth="yes"/>
      <point x="1598" y="-37"/>
      <point x="1569" y="-13"/>
      <point x="1549" y="16" type="curve" smooth="yes"/>
      <point x="531" y="1456" type="line"/>
      <point x="531" y="176" type="line"/>
      <point x="707" y="176" type="line" smooth="yes"/>
      <point x="758" y="176"/>
      <point x="779" y="134"/>
      <point x="779" y="84" type="curve" smooth="yes"/>
      <point x="779" y="40"/>
      <point x="752" y="0"/>
      <point x="705" y="0" type="curve" smooth="yes"/>
      <point x="123" y="0" type="line" smooth="yes"/>
      <point x="76" y="0"/>
      <point x="49" y="40"/>
      <point x="49" y="84" type="curve" smooth="yes"/>
      <point x="49" y="134"/>
      <point x="70" y="176"/>
      <point x="121" y="176" type="curve" smooth="yes"/>
      <point x="320" y="176" type="line"/>
      <point x="320" y="1538" type="line"/>
      <point x="121" y="1538" type="line" smooth="yes"/>
      <point x="70" y="1538"/>
      <point x="49" y="1580"/>
    </contour>
  </outline>
</glyph>
<glyph name="O" format="1">
  <advance width="1972"/>
  <unicode hex="004F"/>
  <outline>
    <contour>
      <point x="982" y="-25" type="curve" smooth="yes"/>
      <point x="458" y="-25"/>
      <point x="93" y="320"/>
      <point x="93" y="850" type="curve" smooth="yes"/>
      <point x="93" y="1382"/>
      <point x="458" y="1739"/>
      <point x="982" y="1739" type="curve" smooth="yes"/>
      <point x="1512" y="1739"/>
      <point x="1879" y="1382"/>
      <point x="1879" y="850" type="curve" smooth="yes"/>
      <point x="1879" y="320"/>
      <point x="1510" y="-25"/>
    </contour>
    <contour>
      <point x="973" y="1550" type="curve" smooth="yes"/>
      <point x="574" y="1550"/>
      <point x="343" y="1256"/>
      <point x="343" y="850" type="curve" smooth="yes"/>
      <point x="343" y="444"/>
      <point x="580" y="164"/>
      <point x="990" y="164" type="curve" smooth="yes"/>
      <point x="1391" y="164"/>
      <point x="1631" y="438"/>
      <point x="1631" y="848" type="curve" smooth="yes"/>
      <point x="1631" y="1262"/>
      <point x="1385" y="1550"/>
    </contour>
  </outline>
</glyph>
<glyph name="Q" format="1">
  <advance width="1980"/>
  <unicode hex="0051"/>
  <outline>
    <contour>
      <point x="990" y="1550" type="curve" smooth="yes"/>
      <point x="587" y="1550"/>
      <point x="355" y="1255"/>
      <point x="355" y="850" type="curve" smooth="yes"/>
      <point x="355" y="444"/>
      <point x="588" y="164"/>
      <point x="990" y="164" type="curve" smooth="yes"/>
      <point x="1400" y="164"/>
      <point x="1645" y="439"/>
      <point x="1645" y="850" type="curve" smooth="yes"/>
      <point x="1645" y="1263"/>
      <point x="1400" y="1550"/>
    </contour>
    <contour>
      <point x="1156" y="-13" type="curve"/>
      <point x="1384" y="-161" type="line"/>
      <point x="1417" y="-178"/>
      <point x="1454" y="-183"/>
      <point x="1492" y="-183" type="curve" smooth="yes"/>
      <point x="1552" y="-183"/>
      <point x="1623" y="-154"/>
      <point x="1705" y="-95" type="curve" smooth="yes"/>
      <point x="1717" y="-87"/>
      <point x="1731" y="-83"/>
      <point x="1746" y="-83" type="curve" smooth="yes"/>
      <point x="1802" y="-83"/>
      <point x="1855" y="-136"/>
      <point x="1855" y="-191" type="curve" smooth="yes"/>
      <point x="1855" y="-314"/>
      <point x="1584" y="-384"/>
      <point x="1480" y="-384" type="curve" smooth="yes"/>
      <point x="1213" y="-384"/>
      <point x="1093" y="-91"/>
      <point x="894" y="-21" type="curve"/>
      <point x="417" y="18"/>
      <point x="93" y="352"/>
      <point x="93" y="850" type="curve" smooth="yes"/>
      <point x="93" y="1382"/>
      <point x="460" y="1739"/>
      <point x="990" y="1739" type="curve" smooth="yes"/>
      <point x="1520" y="1739"/>
      <point x="1887" y="1382"/>
      <point x="1887" y="850" type="curve" smooth="yes"/>
      <point x="1887" y="377"/>
      <point x="1595" y="52"/>
    </contour>
  </outline>
</glyph>
<glyph name="T" format="1">
  <advance width="1662"/>
  <unicode hex="0054"/>
  <outline>
    <contour>
      <point x="102" y="1184" type="curve" smooth="yes"/>
      <point x="58" y="1184"/>
      <point x="34" y="1216"/>
      <point x="34" y="1264" type="curve"/>
      <point x="49" y="1636" type="line" smooth="yes"/>
      <point x="51" y="1688"/>
      <point x="65" y="1714"/>
      <point x="110" y="1714" type="curve" smooth="yes"/>
      <point x="1552" y="1714" type="line" smooth="yes"/>
      <point x="1595" y="1714"/>
      <point x="1611" y="1687"/>
      <point x="1613" y="1636" type="curve" smooth="yes"/>
      <point x="1628" y="1264" type="line"/>
      <point x="1628" y="1216"/>
      <point x="1604" y="1184"/>
      <point x="1560" y="1184" type="curve" smooth="yes"/>
      <point x="1513" y="1184"/>
      <point x="1483" y="1201"/>
      <point x="1478" y="1251" type="curve" smooth="yes"/>
      <point x="1447" y="1538" type="line"/>
      <point x="937" y="1538" type="line"/>
      <point x="937" y="176" type="line"/>
      <point x="1202" y="176" type="line" smooth="yes"/>
      <point x="1253" y="176"/>
      <point x="1273" y="134"/>
      <point x="1273" y="84" type="curve" smooth="yes"/>
      <point x="1273" y="40"/>
      <point x="1247" y="0"/>
      <point x="1200" y="0" type="curve" smooth="yes"/>
      <point x="442" y="0" type="line" smooth="yes"/>
      <point x="395" y="0"/>
      <point x="368" y="40"/>
      <point x="368" y="84" type="curve" smooth="yes"/>
      <point x="368" y="134"/>
      <point x="389" y="176"/>
      <point x="440" y="176" type="curve" smooth="yes"/>
      <point x="704" y="176" type="line"/>
      <point x="704" y="1538" type="line"/>
      <point x="214" y="1538" type="line"/>
      <point x="184" y="1251" type="line" smooth="yes"/>
      <point x="179" y="1200"/>
      <point x="149" y="1184"/>
    </contour>
  </outline>
</glyph>
<glyph name="U" format="1">
  <advance width="1852"/>
  <unicode hex="0055"/>
  <outline>
    <contour>
      <point x="944" y="-25" type="curve" smooth="yes"/>
      <point x="542" y="-25"/>
      <point x="262" y="207"/>
      <point x="262" y="604" type="curve" smooth="yes"/>
      <point x="262" y="1538" type="line"/>
      <point x="111" y="1538" type="line" smooth="yes"/>
      <point x="60" y="1538"/>
      <point x="39" y="1580"/>
      <point x="39" y="1630" type="curve" smooth="yes"/>
      <point x="39" y="1674"/>
      <point x="66" y="1714"/>
      <point x="113" y="1714" type="curve" smooth="yes"/>
      <point x="697" y="1714" type="line" smooth="yes"/>
      <point x="744" y="1714"/>
      <point x="770" y="1674"/>
      <point x="770" y="1630" type="curve" smooth="yes"/>
      <point x="770" y="1580"/>
      <point x="750" y="1538"/>
      <point x="699" y="1538" type="curve" smooth="yes"/>
      <point x="496" y="1538" type="line"/>
      <point x="496" y="604" type="line" smooth="yes"/>
      <point x="496" y="318"/>
      <point x="656" y="154"/>
      <point x="944" y="154" type="curve" smooth="yes"/>
      <point x="1206" y="154"/>
      <point x="1375" y="340"/>
      <point x="1375" y="602" type="curve" smooth="yes"/>
      <point x="1375" y="1538" type="line"/>
      <point x="1184" y="1538" type="line" smooth="yes"/>
      <point x="1133" y="1538"/>
      <point x="1112" y="1580"/>
      <point x="1112" y="1630" type="curve" smooth="yes"/>
      <point x="1112" y="1674"/>
      <point x="1139" y="1714"/>
      <point x="1186" y="1714" type="curve" smooth="yes"/>
      <point x="1739" y="1714" type="line" smooth="yes"/>
      <point x="1786" y="1714"/>
      <point x="1813" y="1674"/>
      <point x="1813" y="1630" type="curve" smooth="yes"/>
      <point x="1813" y="1580"/>
      <point x="1792" y="1538"/>
      <point x="1741" y="1538" type="curve" smooth="yes"/>
      <point x="1567" y="1538" type="line"/>
      <point x="1567" y="602" type="line" smooth="yes"/>
      <point x="1567" y="230"/>
      <point x="1315" y="-25"/>
    </contour>
  </outline>
</glyph>
<glyph name="V" format="1">
  <advance width="1866"/>
  <unicode hex="0056"/>
  <outline>
    <contour>
      <point x="1843" y="1630" type="curve" smooth="yes"/>
      <point x="1843" y="1580"/>
      <point x="1823" y="1538"/>
      <point x="1772" y="1538" type="curve" smooth="yes"/>
      <point x="1602" y="1538" type="line"/>
      <point x="1051" y="29" type="line"/>
      <point x="1028" y="-23"/>
      <point x="1010" y="-53"/>
      <point x="957" y="-53" type="curve" smooth="yes"/>
      <point x="905" y="-53"/>
      <point x="882" y="-19"/>
      <point x="864" y="29" type="curve" smooth="yes"/>
      <point x="305" y="1538" type="line"/>
      <point x="94" y="1538" type="line" smooth="yes"/>
      <point x="43" y="1538"/>
      <point x="23" y="1580"/>
      <point x="23" y="1630" type="curve" smooth="yes"/>
      <point x="23" y="1674"/>
      <point x="49" y="1714"/>
      <point x="96" y="1714" type="curve" smooth="yes"/>
      <point x="711" y="1714" type="line" smooth="yes"/>
      <point x="758" y="1714"/>
      <point x="785" y="1674"/>
      <point x="785" y="1630" type="curve" smooth="yes"/>
      <point x="785" y="1580"/>
      <point x="764" y="1538"/>
      <point x="713" y="1538" type="curve" smooth="yes"/>
      <point x="551" y="1538" type="line"/>
      <point x="985" y="332" type="line"/>
      <point x="1397" y="1538" type="line"/>
      <point x="1235" y="1538" type="line" smooth="yes"/>
      <point x="1184" y="1538"/>
      <point x="1163" y="1580"/>
      <point x="1163" y="1630" type="curve" smooth="yes"/>
      <point x="1163" y="1674"/>
      <point x="1190" y="1714"/>
      <point x="1237" y="1714" type="curve" smooth="yes"/>
      <point x="1770" y="1714" type="line" smooth="yes"/>
      <point x="1817" y="1714"/>
      <point x="1843" y="1674"/>
    </contour>
  </outline>
</glyph>
<glyph name="W" format="1">
  <advance width="2345"/>
  <unicode hex="0057"/>
  <outline>
    <contour>
      <point x="1671" y="1622" type="curve" smooth="yes"/>
      <point x="1671" y="1672"/>
      <point x="1692" y="1714"/>
      <point x="1743" y="1714" type="curve" smooth="yes"/>
      <point x="2240" y="1714" type="line" smooth="yes"/>
      <point x="2291" y="1714"/>
      <point x="2312" y="1672"/>
      <point x="2312" y="1622" type="curve" smooth="yes"/>
      <point x="2312" y="1578"/>
      <point x="2285" y="1538"/>
      <point x="2238" y="1538" type="curve" smooth="yes"/>
      <point x="2072" y="1538" type="line"/>
      <point x="1636" y="39" type="line"/>
      <point x="1622" y="3"/>
      <point x="1576" y="-27"/>
      <point x="1526" y="-27" type="curve" smooth="yes"/>
      <point x="1475" y="-27"/>
      <point x="1434" y="-2"/>
      <point x="1427" y="47" type="curve"/>
      <point x="1169" y="1135" type="line"/>
      <point x="872" y="39" type="line"/>
      <point x="859" y="2"/>
      <point x="808" y="-27"/>
      <point x="758" y="-27" type="curve" smooth="yes"/>
      <point x="702" y="-27"/>
      <point x="663" y="-2"/>
      <point x="653" y="51" type="curve"/>
      <point x="270" y="1538" type="line"/>
      <point x="106" y="1538" type="line" smooth="yes"/>
      <point x="59" y="1538"/>
      <point x="33" y="1578"/>
      <point x="33" y="1622" type="curve" smooth="yes"/>
      <point x="33" y="1672"/>
      <point x="53" y="1714"/>
      <point x="104" y="1714" type="curve" smooth="yes"/>
      <point x="602" y="1714" type="line" smooth="yes"/>
      <point x="653" y="1714"/>
      <point x="674" y="1672"/>
      <point x="674" y="1622" type="curve" smooth="yes"/>
      <point x="674" y="1578"/>
      <point x="647" y="1538"/>
      <point x="600" y="1538" type="curve" smooth="yes"/>
      <point x="506" y="1538" type="line"/>
      <point x="790" y="381" type="line"/>
      <point x="1114" y="1538" type="line"/>
      <point x="1022" y="1538" type="line" smooth="yes"/>
      <point x="975" y="1538"/>
      <point x="948" y="1578"/>
      <point x="948" y="1622" type="curve" smooth="yes"/>
      <point x="948" y="1672"/>
      <point x="969" y="1714"/>
      <point x="1020" y="1714" type="curve" smooth="yes"/>
      <point x="1374" y="1714" type="line" smooth="yes"/>
      <point x="1425" y="1714"/>
      <point x="1446" y="1672"/>
      <point x="1446" y="1622" type="curve" smooth="yes"/>
      <point x="1446" y="1578"/>
      <point x="1419" y="1538"/>
      <point x="1372" y="1538" type="curve" smooth="yes"/>
      <point x="1272" y="1538" type="line"/>
      <point x="1550" y="401" type="line"/>
      <point x="1866" y="1538" type="line"/>
      <point x="1745" y="1538" type="line" smooth="yes"/>
      <point x="1698" y="1538"/>
      <point x="1671" y="1578"/>
    </contour>
  </outline>
</glyph>
<glyph name="X" format="1">
  <advance width="2011"/>
  <unicode hex="0058"/>
  <outline>
    <contour>
      <point x="1941" y="1630" type="curve" smooth="yes"/>
      <point x="1941" y="1580"/>
      <point x="1920" y="1538"/>
      <point x="1869" y="1538" type="curve" smooth="yes"/>
      <point x="1703" y="1538" type="line"/>
      <point x="1150" y="895" type="line"/>
      <point x="1769" y="176" type="line"/>
      <point x="1890" y="176" type="line" smooth="yes"/>
      <point x="1941" y="176"/>
      <point x="1962" y="134"/>
      <point x="1962" y="84" type="curve" smooth="yes"/>
      <point x="1962" y="40"/>
      <point x="1935" y="0"/>
      <point x="1888" y="0" type="curve" smooth="yes"/>
      <point x="1212" y="0" type="line" smooth="yes"/>
      <point x="1165" y="0"/>
      <point x="1138" y="40"/>
      <point x="1138" y="84" type="curve" smooth="yes"/>
      <point x="1138" y="134"/>
      <point x="1159" y="176"/>
      <point x="1210" y="176" type="curve" smooth="yes"/>
      <point x="1488" y="176" type="line"/>
      <point x="1009" y="731" type="line"/>
      <point x="532" y="176" type="line"/>
      <point x="780" y="176" type="line" smooth="yes"/>
      <point x="831" y="176"/>
      <point x="851" y="134"/>
      <point x="851" y="84" type="curve" smooth="yes"/>
      <point x="851" y="40"/>
      <point x="825" y="0"/>
      <point x="778" y="0" type="curve" smooth="yes"/>
      <point x="122" y="0" type="line" smooth="yes"/>
      <point x="75" y="0"/>
      <point x="49" y="40"/>
      <point x="49" y="84" type="curve" smooth="yes"/>
      <point x="49" y="134"/>
      <point x="69" y="176"/>
      <point x="120" y="176" type="curve" smooth="yes"/>
      <point x="303" y="176" type="line"/>
      <point x="894" y="864" type="line"/>
      <point x="317" y="1538" type="line"/>
      <point x="182" y="1538" type="line" smooth="yes"/>
      <point x="131" y="1538"/>
      <point x="110" y="1580"/>
      <point x="110" y="1630" type="curve" smooth="yes"/>
      <point x="110" y="1674"/>
      <point x="137" y="1714"/>
      <point x="184" y="1714" type="curve" smooth="yes"/>
      <point x="778" y="1714" type="line" smooth="yes"/>
      <point x="825" y="1714"/>
      <point x="851" y="1674"/>
      <point x="851" y="1630" type="curve" smooth="yes"/>
      <point x="851" y="1580"/>
      <point x="831" y="1538"/>
      <point x="780" y="1538" type="curve" smooth="yes"/>
      <point x="598" y="1538" type="line"/>
      <point x="1036" y="1028" type="line"/>
      <point x="1474" y="1538" type="line"/>
      <point x="1292" y="1538" type="line" smooth="yes"/>
      <point x="1241" y="1538"/>
      <point x="1220" y="1580"/>
      <point x="1220" y="1630" type="curve" smooth="yes"/>
      <point x="1220" y="1674"/>
      <point x="1247" y="1714"/>
      <point x="1294" y="1714" type="curve" smooth="yes"/>
      <point x="1867" y="1714" type="line" smooth="yes"/>
      <point x="1914" y="1714"/>
      <point x="1941" y="1674"/>
    </contour>
  </outline>
</glyph>
<glyph name="Y" format="1">
  <advance width="1832"/>
  <unicode hex="0059"/>
  <outline>
    <contour>
      <point x="1766" y="1630" type="curve" smooth="yes"/>
      <point x="1766" y="1580"/>
      <point x="1745" y="1538"/>
      <point x="1694" y="1538" type="curve" smooth="yes"/>
      <point x="1555" y="1538" type="line"/>
      <point x="1058" y="723" type="line"/>
      <point x="1058" y="176" type="line"/>
      <point x="1281" y="176" type="line" smooth="yes"/>
      <point x="1332" y="176"/>
      <point x="1352" y="134"/>
      <point x="1352" y="84" type="curve" smooth="yes"/>
      <point x="1352" y="40"/>
      <point x="1326" y="0"/>
      <point x="1279" y="0" type="curve" smooth="yes"/>
      <point x="562" y="0" type="line" smooth="yes"/>
      <point x="515" y="0"/>
      <point x="488" y="40"/>
      <point x="488" y="84" type="curve" smooth="yes"/>
      <point x="488" y="134"/>
      <point x="509" y="176"/>
      <point x="560" y="176" type="curve" smooth="yes"/>
      <point x="824" y="176" type="line"/>
      <point x="824" y="739" type="line"/>
      <point x="349" y="1538" type="line"/>
      <point x="138" y="1538" type="line" smooth="yes"/>
      <point x="87" y="1538"/>
      <point x="66" y="1580"/>
      <point x="66" y="1630" type="curve" smooth="yes"/>
      <point x="66" y="1674"/>
      <point x="93" y="1714"/>
      <point x="140" y="1714" type="curve" smooth="yes"/>
      <point x="734" y="1714" type="line" smooth="yes"/>
      <point x="781" y="1714"/>
      <point x="808" y="1674"/>
      <point x="808" y="1630" type="curve" smooth="yes"/>
      <point x="808" y="1580"/>
      <point x="787" y="1538"/>
      <point x="736" y="1538" type="curve" smooth="yes"/>
      <point x="595" y="1538" type="line"/>
      <point x="980" y="891" type="line"/>
      <point x="1361" y="1538" type="line"/>
      <point x="1199" y="1538" type="line" smooth="yes"/>
      <point x="1148" y="1538"/>
      <point x="1127" y="1580"/>
      <point x="1127" y="1630" type="curve" smooth="yes"/>
      <point x="1127" y="1674"/>
      <point x="1154" y="1714"/>
      <point x="1201" y="1714" type="curve" smooth="yes"/>
      <point x="1692" y="1714" type="line" smooth="yes"/>
      <point x="1739" y="1714"/>
      <point x="1766" y="1674"/>
    </contour>
  </outline>
</glyph>
<glyph name="o" format="1">
  <advance width="1391"/>
  <unicode hex="006F"/>
  <outline>
    <contour>
      <point x="702" y="1018" type="curve" smooth="yes"/>
      <point x="448" y="1018"/>
      <point x="303" y="836"/>
      <point x="303" y="582" type="curve" smooth="yes"/>
      <point x="303" y="326"/>
      <point x="448" y="145"/>
      <point x="702" y="145" type="curve" smooth="yes"/>
      <point x="950" y="145"/>
      <point x="1089" y="332"/>
      <point x="1089" y="582" type="curve" smooth="yes"/>
      <point x="1089" y="833"/>
      <point x="950" y="1018"/>
    </contour>
    <contour>
      <point x="702" y="-25" type="curve" smooth="yes"/>
      <point x="331" y="-25"/>
      <point x="81" y="211"/>
      <point x="81" y="582" type="curve" smooth="yes"/>
      <point x="81" y="955"/>
      <point x="332" y="1188"/>
      <point x="702" y="1188" type="curve" smooth="yes"/>
      <point x="1067" y="1188"/>
      <point x="1310" y="948"/>
      <point x="1310" y="582" type="curve" smooth="yes"/>
      <point x="1310" y="216"/>
      <point x="1066" y="-25"/>
    </contour>
  </outline>
</glyph>
<glyph name="v" format="1">
  <advance width="1433"/>
  <unicode hex="0076"/>
  <outline>
    <contour>
      <point x="620" y="1049" type="curve" smooth="yes"/>
      <point x="620" y="999"/>
      <point x="600" y="956"/>
      <point x="549" y="956" type="curve" smooth="yes"/>
      <point x="434" y="956" type="line"/>
      <point x="753" y="272" type="line"/>
      <point x="1046" y="956" type="line"/>
      <point x="950" y="956" type="line" smooth="yes"/>
      <point x="899" y="956"/>
      <point x="878" y="999"/>
      <point x="878" y="1049" type="curve" smooth="yes"/>
      <point x="878" y="1093"/>
      <point x="905" y="1133"/>
      <point x="952" y="1133" type="curve" smooth="yes"/>
      <point x="1349" y="1133" type="line" smooth="yes"/>
      <point x="1406" y="1133"/>
      <point x="1431" y="1098"/>
      <point x="1431" y="1047" type="curve" smooth="yes"/>
      <point x="1431" y="998"/>
      <point x="1407" y="956"/>
      <point x="1355" y="956" type="curve" smooth="yes"/>
      <point x="1224" y="956" type="line"/>
      <point x="848" y="117" type="line"/>
      <point x="818" y="61"/>
      <point x="791" y="0"/>
      <point x="727" y="0" type="curve" smooth="yes"/>
      <point x="669" y="0"/>
      <point x="641" y="62"/>
      <point x="610" y="125" type="curve" smooth="yes"/>
      <point x="196" y="956" type="line"/>
      <point x="78" y="956" type="line" smooth="yes"/>
      <point x="27" y="956"/>
      <point x="2" y="997"/>
      <point x="2" y="1047" type="curve" smooth="yes"/>
      <point x="2" y="1098"/>
      <point x="28" y="1133"/>
      <point x="84" y="1133" type="curve" smooth="yes"/>
      <point x="547" y="1133" type="line" smooth="yes"/>
      <point x="594" y="1133"/>
      <point x="620" y="1093"/>
    </contour>
  </outline>
</glyph>
<glyph name="w" format="1">
  <advance width="1997"/>
  <unicode hex="0077"/>
  <outline>
    <contour>
      <point x="1297" y="1049" type="curve" smooth="yes"/>
      <point x="1297" y="999"/>
      <point x="1276" y="956"/>
      <point x="1225" y="956" type="curve" smooth="yes"/>
      <point x="1063" y="956" type="line"/>
      <point x="1368" y="299" type="line"/>
      <point x="1667" y="956" type="line"/>
      <point x="1567" y="956" type="line" smooth="yes"/>
      <point x="1516" y="956"/>
      <point x="1495" y="999"/>
      <point x="1495" y="1049" type="curve" smooth="yes"/>
      <point x="1495" y="1093"/>
      <point x="1522" y="1133"/>
      <point x="1569" y="1133" type="curve" smooth="yes"/>
      <point x="1915" y="1133" type="line" smooth="yes"/>
      <point x="1971" y="1133"/>
      <point x="1997" y="1098"/>
      <point x="1997" y="1047" type="curve" smooth="yes"/>
      <point x="1997" y="998"/>
      <point x="1973" y="956"/>
      <point x="1921" y="956" type="curve" smooth="yes"/>
      <point x="1819" y="956" type="line"/>
      <point x="1446" y="117" type="line" smooth="yes"/>
      <point x="1423" y="66"/>
      <point x="1397" y="-2"/>
      <point x="1348" y="-2" type="curve" smooth="yes"/>
      <point x="1302" y="-2"/>
      <point x="1265" y="79"/>
      <point x="1243" y="125" type="curve" smooth="yes"/>
      <point x="1008" y="608" type="line"/>
      <point x="789" y="117" type="line" smooth="yes"/>
      <point x="756" y="42"/>
      <point x="720" y="4"/>
      <point x="682" y="4" type="curve" smooth="yes"/>
      <point x="645" y="4"/>
      <point x="607" y="44"/>
      <point x="567" y="125" type="curve" smooth="yes"/>
      <point x="160" y="956" type="line"/>
      <point x="76" y="956" type="line" smooth="yes"/>
      <point x="24" y="956"/>
      <point x="0" y="997"/>
      <point x="0" y="1047" type="curve" smooth="yes"/>
      <point x="0" y="1098"/>
      <point x="26" y="1133"/>
      <point x="82" y="1133" type="curve" smooth="yes"/>
      <point x="463" y="1133" type="line" smooth="yes"/>
      <point x="510" y="1133"/>
      <point x="537" y="1093"/>
      <point x="537" y="1049" type="curve" smooth="yes"/>
      <point x="537" y="999"/>
      <point x="516" y="956"/>
      <point x="465" y="956" type="curve" smooth="yes"/>
      <point x="385" y="956" type="line"/>
      <point x="711" y="299" type="line"/>
      <point x="926" y="774" type="line"/>
      <point x="838" y="956" type="line"/>
      <point x="774" y="956" type="line" smooth="yes"/>
      <point x="722" y="956"/>
      <point x="699" y="997"/>
      <point x="699" y="1047" type="curve" smooth="yes"/>
      <point x="699" y="1098"/>
      <point x="724" y="1133"/>
      <point x="780" y="1133" type="curve" smooth="yes"/>
      <point x="1223" y="1133" type="line" smooth="yes"/>
      <point x="1270" y="1133"/>
      <point x="1297" y="1093"/>
    </contour>
  </outline>
</glyph>
<glyph name="x" format="1">
  <advance width="1553"/>
  <unicode hex="0078"/>
  <outline>
    <contour>
      <point x="872" y="86" type="curve" smooth="yes"/>
      <point x="872" y="135"/>
      <point x="895" y="176"/>
      <point x="947" y="176" type="curve" smooth="yes"/>
      <point x="1064" y="176" type="line"/>
      <point x="767" y="473" type="line"/>
      <point x="450" y="176" type="line"/>
      <point x="528" y="176" type="line" smooth="yes"/>
      <point x="579" y="176"/>
      <point x="599" y="134"/>
      <point x="599" y="84" type="curve" smooth="yes"/>
      <point x="599" y="40"/>
      <point x="573" y="0"/>
      <point x="526" y="0" type="curve" smooth="yes"/>
      <point x="120" y="0" type="line" smooth="yes"/>
      <point x="64" y="0"/>
      <point x="38" y="35"/>
      <point x="38" y="86" type="curve" smooth="yes"/>
      <point x="38" y="135"/>
      <point x="62" y="176"/>
      <point x="114" y="176" type="curve" smooth="yes"/>
      <point x="249" y="176" type="line"/>
      <point x="667" y="575" type="line"/>
      <point x="292" y="956" type="line"/>
      <point x="141" y="956" type="line" smooth="yes"/>
      <point x="85" y="956"/>
      <point x="59" y="992"/>
      <point x="59" y="1043" type="curve" smooth="yes"/>
      <point x="59" y="1092"/>
      <point x="82" y="1133"/>
      <point x="134" y="1133" type="curve" smooth="yes"/>
      <point x="569" y="1133" type="line" smooth="yes"/>
      <point x="620" y="1133"/>
      <point x="640" y="1091"/>
      <point x="640" y="1041" type="curve" smooth="yes"/>
      <point x="640" y="997"/>
      <point x="614" y="956"/>
      <point x="567" y="956" type="curve" smooth="yes"/>
      <point x="530" y="956" type="line"/>
      <point x="796" y="698" type="line"/>
      <point x="1064" y="956" type="line"/>
      <point x="1015" y="956" type="line" smooth="yes"/>
      <point x="959" y="956"/>
      <point x="933" y="992"/>
      <point x="933" y="1043" type="curve" smooth="yes"/>
      <point x="933" y="1092"/>
      <point x="957" y="1133"/>
      <point x="1009" y="1133" type="curve" smooth="yes"/>
      <point x="1443" y="1133" type="line" smooth="yes"/>
      <point x="1494" y="1133"/>
      <point x="1515" y="1091"/>
      <point x="1515" y="1041" type="curve" smooth="yes"/>
      <point x="1515" y="997"/>
      <point x="1488" y="956"/>
      <point x="1441" y="956" type="curve" smooth="yes"/>
      <point x="1281" y="956" type="line"/>
      <point x="900" y="598" type="line"/>
      <point x="1339" y="176" type="line"/>
      <point x="1443" y="176" type="line" smooth="yes"/>
      <point x="1494" y="176"/>
      <point x="1515" y="134"/>
      <point x="1515" y="84" type="curve" smooth="yes"/>
      <point x="1515" y="40"/>
      <point x="1488" y="0"/>
      <point x="1441" y="0" type="curve" smooth="yes"/>
      <point x="954" y="0" type="line" smooth="yes"/>
      <point x="898" y="0"/>
      <point x="872" y="35"/>
    </contour>
  </outline>
</glyph>
<glyph name="bar" format="1">
  <advance width="778"/>
  <unicode hex="007C"/>
  <outline>
    <contour>
      <point x="394" y="1841" type="curve" smooth="yes"/>
      <point x="443" y="1841"/>
      <point x="475" y="1815"/>
      <point x="480" y="1769" type="curve"/>
      <point x="480" y="-98" type="line" smooth="yes"/>
      <point x="480" y="-140"/>
      <point x="432" y="-164"/>
      <point x="392" y="-164" type="curve" smooth="yes"/>
      <point x="340" y="-164"/>
      <point x="304" y="-142"/>
      <point x="304" y="-82" type="curve" smooth="yes"/>
      <point x="304" y="1769" type="line" smooth="yes"/>
      <point x="304" y="1817"/>
      <point x="348" y="1841"/>
    </contour>
  </outline>
</glyph>
<glyph name="asciitilde" format="1">
  <advance width="1338"/>
  <unicode hex="007E"/>
  <outline>
    <contour>
      <point x="159" y="1065" type="curve" smooth="yes"/>
      <point x="159" y="1231"/>
      <point x="257" y="1350"/>
      <point x="379" y="1350" type="curve" smooth="yes"/>
      <point x="619" y="1350"/>
      <point x="798" y="1168"/>
      <point x="884" y="1168" type="curve" smooth="yes"/>
      <point x="1026" y="1168"/>
      <point x="1031" y="1330"/>
      <point x="1107" y="1330" type="curve" smooth="yes"/>
      <point x="1146" y="1330"/>
      <point x="1181" y="1312"/>
      <point x="1181" y="1276" type="curve" smooth="yes"/>
      <point x="1181" y="1109"/>
      <point x="1066" y="992"/>
      <point x="922" y="992" type="curve" smooth="yes"/>
      <point x="727" y="992"/>
      <point x="538" y="1173"/>
      <point x="409" y="1173" type="curve" smooth="yes"/>
      <point x="290" y="1173"/>
      <point x="290" y="1012"/>
      <point x="232" y="1012" type="curve" smooth="yes"/>
      <point x="194" y="1012"/>
      <point x="159" y="1029"/>
    </contour>
  </outline>
</glyph>
<glyph name="exclamdown" format="1">
  <advance width="728"/>
  <unicode hex="00A1"/>
  <outline>
    <contour>
      <point x="502" y="127" type="curve" smooth="yes"/>
      <point x="502" y="29"/>
      <point x="448" y="-25"/>
      <point x="367" y="-25" type="curve" smooth="yes"/>
      <point x="288" y="-25"/>
      <point x="231" y="29"/>
      <point x="231" y="123" type="curve" smooth="yes"/>
      <point x="231" y="465"/>
      <point x="305" y="794"/>
      <point x="305" y="1157" type="curve" smooth="yes"/>
      <point x="305" y="1191"/>
      <point x="333" y="1219"/>
      <point x="367" y="1219" type="curve" smooth="yes"/>
      <point x="400" y="1219"/>
      <point x="428" y="1191"/>
      <point x="428" y="1157" type="curve" smooth="yes"/>
      <point x="428" y="797"/>
      <point x="502" y="465"/>
    </contour>
    <contour>
      <point x="365" y="1739" type="curve" smooth="yes"/>
      <point x="465" y="1739"/>
      <point x="541" y="1662"/>
      <point x="541" y="1562" type="curve" smooth="yes"/>
      <point x="541" y="1462"/>
      <point x="465" y="1386"/>
      <point x="365" y="1386" type="curve" smooth="yes"/>
      <point x="265" y="1386"/>
      <point x="188" y="1462"/>
      <point x="188" y="1562" type="curve" smooth="yes"/>
      <point x="188" y="1662"/>
      <point x="265" y="1739"/>
    </contour>
  </outline>
</glyph>
<glyph name="currency" format="1">
  <advance width="1128"/>
  <unicode hex="00A4"/>
  <outline>
    <contour>
      <point x="885" y="1108" type="curve" smooth="yes"/>
      <point x="924" y="1108"/>
      <point x="959" y="1073"/>
      <point x="959" y="1035" type="curve" smooth="yes"/>
      <point x="959" y="1016"/>
      <point x="951" y="998"/>
      <point x="937" y="983" type="curve" smooth="yes"/>
      <point x="667" y="714" type="line"/>
      <point x="937" y="444" type="line" smooth="yes"/>
      <point x="951" y="430"/>
      <point x="959" y="411"/>
      <point x="959" y="393" type="curve" smooth="yes"/>
      <point x="959" y="354"/>
      <point x="924" y="319"/>
      <point x="885" y="319" type="curve" smooth="yes"/>
      <point x="866" y="319"/>
      <point x="847" y="327"/>
      <point x="833" y="341" type="curve" smooth="yes"/>
      <point x="564" y="610" type="line"/>
      <point x="295" y="341" type="line" smooth="yes"/>
      <point x="280" y="327"/>
      <point x="262" y="319"/>
      <point x="243" y="319" type="curve" smooth="yes"/>
      <point x="204" y="319"/>
      <point x="169" y="354"/>
      <point x="169" y="393" type="curve" smooth="yes"/>
      <point x="169" y="411"/>
      <point x="176" y="430"/>
      <point x="191" y="444" type="curve" smooth="yes"/>
      <point x="460" y="714" type="line"/>
      <point x="191" y="983" type="line" smooth="yes"/>
      <point x="176" y="998"/>
      <point x="169" y="1016"/>
      <point x="169" y="1035" type="curve" smooth="yes"/>
      <point x="169" y="1073"/>
      <point x="204" y="1108"/>
      <point x="243" y="1108" type="curve" smooth="yes"/>
      <point x="262" y="1108"/>
      <point x="280" y="1101"/>
      <point x="295" y="1086" type="curve" smooth="yes"/>
      <point x="564" y="817" type="line"/>
      <point x="833" y="1086" type="line" smooth="yes"/>
      <point x="847" y="1101"/>
      <point x="866" y="1108"/>
    </contour>
  </outline>
</glyph>
<glyph name="yen" format="1">
  <advance width="1824"/>
  <unicode hex="00A5"/>
  <outline>
    <contour>
      <point x="1763" y="1630" type="curve" smooth="yes"/>
      <point x="1763" y="1580"/>
      <point x="1742" y="1538"/>
      <point x="1691" y="1538" type="curve" smooth="yes"/>
      <point x="1552" y="1538" type="line"/>
      <point x="1130" y="846" type="line"/>
      <point x="1406" y="846" type="line" smooth="yes"/>
      <point x="1447" y="846"/>
      <point x="1480" y="812"/>
      <point x="1480" y="771" type="curve" smooth="yes"/>
      <point x="1480" y="730"/>
      <point x="1447" y="697"/>
      <point x="1406" y="697" type="curve" smooth="yes"/>
      <point x="1055" y="697" type="line"/>
      <point x="1055" y="584" type="line"/>
      <point x="1406" y="584" type="line" smooth="yes"/>
      <point x="1447" y="584"/>
      <point x="1480" y="551"/>
      <point x="1480" y="510" type="curve" smooth="yes"/>
      <point x="1480" y="469"/>
      <point x="1447" y="435"/>
      <point x="1406" y="435" type="curve" smooth="yes"/>
      <point x="1055" y="435" type="line"/>
      <point x="1055" y="176" type="line"/>
      <point x="1278" y="176" type="line" smooth="yes"/>
      <point x="1329" y="176"/>
      <point x="1349" y="134"/>
      <point x="1349" y="84" type="curve" smooth="yes"/>
      <point x="1349" y="40"/>
      <point x="1323" y="0"/>
      <point x="1276" y="0" type="curve" smooth="yes"/>
      <point x="559" y="0" type="line" smooth="yes"/>
      <point x="512" y="0"/>
      <point x="485" y="40"/>
      <point x="485" y="84" type="curve" smooth="yes"/>
      <point x="485" y="134"/>
      <point x="506" y="176"/>
      <point x="557" y="176" type="curve" smooth="yes"/>
      <point x="821" y="176" type="line"/>
      <point x="821" y="435" type="line"/>
      <point x="471" y="435" type="line" smooth="yes"/>
      <point x="430" y="435"/>
      <point x="397" y="469"/>
      <point x="397" y="510" type="curve" smooth="yes"/>
      <point x="397" y="551"/>
      <point x="430" y="584"/>
      <point x="471" y="584" type="curve" smooth="yes"/>
      <point x="821" y="584" type="line"/>
      <point x="821" y="697" type="line"/>
      <point x="471" y="697" type="line" smooth="yes"/>
      <point x="430" y="697"/>
      <point x="397" y="730"/>
      <point x="397" y="771" type="curve" smooth="yes"/>
      <point x="397" y="812"/>
      <point x="430" y="846"/>
      <point x="471" y="846" type="curve" smooth="yes"/>
      <point x="757" y="846" type="line"/>
      <point x="346" y="1538" type="line"/>
      <point x="135" y="1538" type="line" smooth="yes"/>
      <point x="84" y="1538"/>
      <point x="63" y="1580"/>
      <point x="63" y="1630" type="curve" smooth="yes"/>
      <point x="63" y="1674"/>
      <point x="90" y="1714"/>
      <point x="137" y="1714" type="curve" smooth="yes"/>
      <point x="731" y="1714" type="line" smooth="yes"/>
      <point x="778" y="1714"/>
      <point x="805" y="1674"/>
      <point x="805" y="1630" type="curve" smooth="yes"/>
      <point x="805" y="1580"/>
      <point x="784" y="1538"/>
      <point x="733" y="1538" type="curve" smooth="yes"/>
      <point x="592" y="1538" type="line"/>
      <point x="977" y="891" type="line"/>
      <point x="1358" y="1538" type="line"/>
      <point x="1196" y="1538" type="line" smooth="yes"/>
      <point x="1145" y="1538"/>
      <point x="1124" y="1580"/>
      <point x="1124" y="1630" type="curve" smooth="yes"/>
      <point x="1124" y="1674"/>
      <point x="1151" y="1714"/>
      <point x="1198" y="1714" type="curve" smooth="yes"/>
      <point x="1689" y="1714" type="line" smooth="yes"/>
      <point x="1736" y="1714"/>
      <point x="1763" y="1674"/>
    </contour>
  </outline>
</glyph>
<glyph name="dieresis" format="1">
  <advance width="886"/>
  <unicode hex="00A8"/>
  <outline>
    <contour>
      <point x="199" y="1432" type="curve" smooth="yes"/>
      <point x="126" y="1432"/>
      <point x="65" y="1492"/>
      <point x="65" y="1565" type="curve" smooth="yes"/>
      <point x="65" y="1638"/>
      <point x="126" y="1698"/>
      <point x="199" y="1698" type="curve" smooth="yes"/>
      <point x="272" y="1698"/>
      <point x="332" y="1638"/>
      <point x="332" y="1565" type="curve" smooth="yes"/>
      <point x="332" y="1492"/>
      <point x="272" y="1432"/>
    </contour>
    <contour>
      <point x="690" y="1432" type="curve" smooth="yes"/>
      <point x="617" y="1432"/>
      <point x="557" y="1492"/>
      <point x="557" y="1565" type="curve" smooth="yes"/>
      <point x="557" y="1638"/>
      <point x="617" y="1698"/>
      <point x="690" y="1698" type="curve" smooth="yes"/>
      <point x="763" y="1698"/>
      <point x="823" y="1638"/>
      <point x="823" y="1565" type="curve" smooth="yes"/>
      <point x="823" y="1492"/>
      <point x="763" y="1432"/>
    </contour>
  </outline>
</glyph>
<glyph name="copyright" format="1">
  <advance width="2128"/>
  <unicode hex="00A9"/>
  <outline>
    <contour>
      <point x="1961" y="850" type="curve" smooth="yes"/>
      <point x="1961" y="319"/>
      <point x="1593" y="-25"/>
      <point x="1064" y="-25" type="curve" smooth="yes"/>
      <point x="535" y="-25"/>
      <point x="167" y="319"/>
      <point x="167" y="850" type="curve" smooth="yes"/>
      <point x="167" y="1382"/>
      <point x="534" y="1739"/>
      <point x="1064" y="1739" type="curve" smooth="yes"/>
      <point x="1594" y="1739"/>
      <point x="1961" y="1382"/>
    </contour>
    <contour>
      <point x="1070" y="469" type="curve" smooth="yes"/>
      <point x="1236" y="469"/>
      <point x="1359" y="562"/>
      <point x="1359" y="731" type="curve" smooth="yes"/>
      <point x="1359" y="763"/>
      <point x="1397" y="774"/>
      <point x="1432" y="774" type="curve" smooth="yes"/>
      <point x="1461" y="774"/>
      <point x="1504" y="759"/>
      <point x="1504" y="729" type="curve" smooth="yes"/>
      <point x="1504" y="508" type="line" smooth="yes"/>
      <point x="1504" y="487"/>
      <point x="1503" y="480"/>
      <point x="1486" y="473" type="curve"/>
      <point x="1387" y="387"/>
      <point x="1246" y="319"/>
      <point x="1070" y="319" type="curve" smooth="yes"/>
      <point x="750" y="319"/>
      <point x="537" y="537"/>
      <point x="537" y="858" type="curve" smooth="yes"/>
      <point x="537" y="1181"/>
      <point x="750" y="1405"/>
      <point x="1070" y="1405" type="curve" smooth="yes"/>
      <point x="1185" y="1405"/>
      <point x="1271" y="1367"/>
      <point x="1338" y="1307" type="curve"/>
      <point x="1338" y="1348" type="line" smooth="yes"/>
      <point x="1338" y="1380"/>
      <point x="1378" y="1391"/>
      <point x="1412" y="1391" type="curve" smooth="yes"/>
      <point x="1440" y="1391"/>
      <point x="1484" y="1376"/>
      <point x="1484" y="1348" type="curve" smooth="yes"/>
      <point x="1484" y="1083" type="line" smooth="yes"/>
      <point x="1484" y="1053"/>
      <point x="1441" y="1040"/>
      <point x="1412" y="1040" type="curve" smooth="yes"/>
      <point x="1376" y="1040"/>
      <point x="1361" y="1079"/>
      <point x="1342" y="1106" type="curve"/>
      <point x="1284" y="1195"/>
      <point x="1199" y="1262"/>
      <point x="1070" y="1262" type="curve" smooth="yes"/>
      <point x="849" y="1262"/>
      <point x="726" y="1080"/>
      <point x="726" y="858" type="curve" smooth="yes"/>
      <point x="726" y="639"/>
      <point x="853" y="469"/>
    </contour>
    <contour>
      <point x="333" y="854" type="curve" smooth="yes"/>
      <point x="333" y="417"/>
      <point x="619" y="123"/>
      <point x="1064" y="123" type="curve" smooth="yes"/>
      <point x="1509" y="123"/>
      <point x="1795" y="417"/>
      <point x="1795" y="854" type="curve" smooth="yes"/>
      <point x="1795" y="1289"/>
      <point x="1507" y="1591"/>
      <point x="1064" y="1591" type="curve" smooth="yes"/>
      <point x="621" y="1591"/>
      <point x="333" y="1289"/>
    </contour>
  </outline>
</glyph>
<glyph name="uni00AD" format="1">
  <advance width="1293"/>
  <unicode hex="00AD"/>
  <outline>
    <contour>
      <point x="174" y="715" type="curve" smooth="yes"/>
      <point x="174" y="770"/>
      <point x="220" y="817"/>
      <point x="276" y="817" type="curve" smooth="yes"/>
      <point x="1018" y="817" type="line" smooth="yes"/>
      <point x="1074" y="817"/>
      <point x="1120" y="770"/>
      <point x="1120" y="715" type="curve" smooth="yes"/>
      <point x="1120" y="658"/>
      <point x="1075" y="612"/>
      <point x="1018" y="612" type="curve" smooth="yes"/>
      <point x="276" y="612" type="line" smooth="yes"/>
      <point x="219" y="612"/>
      <point x="174" y="658"/>
    </contour>
  </outline>
</glyph>
<glyph name="registered" format="1">
  <advance width="2133"/>
  <unicode hex="00AE"/>
  <outline>
    <contour>
      <point x="918" y="986" type="line" smooth="yes"/>
      <point x="1122" y="986"/>
      <point x="1304" y="988"/>
      <point x="1304" y="1132" type="curve" smooth="yes"/>
      <point x="1304" y="1307"/>
      <point x="1113" y="1307"/>
      <point x="933" y="1307" type="curve" smooth="yes"/>
      <point x="855" y="1307" type="line"/>
      <point x="855" y="986" type="line"/>
    </contour>
    <contour>
      <point x="1464" y="1135" type="curve" smooth="yes"/>
      <point x="1464" y="970"/>
      <point x="1336" y="912"/>
      <point x="1160" y="886" type="curve"/>
      <point x="1408" y="478" type="line"/>
      <point x="1496" y="478" type="line" smooth="yes"/>
      <point x="1550" y="478"/>
      <point x="1569" y="462"/>
      <point x="1569" y="416" type="curve" smooth="yes"/>
      <point x="1569" y="366"/>
      <point x="1540" y="359"/>
      <point x="1498" y="359" type="curve" smooth="yes"/>
      <point x="1497" y="359" type="line"/>
      <point x="1186" y="360" type="line" smooth="yes"/>
      <point x="1155" y="360"/>
      <point x="1137" y="387"/>
      <point x="1137" y="416" type="curve" smooth="yes"/>
      <point x="1137" y="450"/>
      <point x="1151" y="478"/>
      <point x="1185" y="478" type="curve" smooth="yes"/>
      <point x="1248" y="478" type="line"/>
      <point x="1027" y="867" type="line"/>
      <point x="855" y="867" type="line"/>
      <point x="855" y="478" type="line"/>
      <point x="972" y="478" type="line" smooth="yes"/>
      <point x="1006" y="478"/>
      <point x="1020" y="450"/>
      <point x="1020" y="416" type="curve" smooth="yes"/>
      <point x="1020" y="387"/>
      <point x="1001" y="360"/>
      <point x="970" y="360" type="curve" smooth="yes"/>
      <point x="610" y="360" type="line" smooth="yes"/>
      <point x="579" y="360"/>
      <point x="560" y="387"/>
      <point x="560" y="416" type="curve" smooth="yes"/>
      <point x="560" y="450"/>
      <point x="574" y="478"/>
      <point x="608" y="478" type="curve" smooth="yes"/>
      <point x="698" y="478" type="line"/>
      <point x="698" y="1307" type="line"/>
      <point x="636" y="1307" type="line" smooth="yes"/>
      <point x="602" y="1307"/>
      <point x="588" y="1336"/>
      <point x="588" y="1369" type="curve" smooth="yes"/>
      <point x="588" y="1398"/>
      <point x="606" y="1425"/>
      <point x="637" y="1425" type="curve" smooth="yes"/>
      <point x="954" y="1425" type="line" smooth="yes"/>
      <point x="1218" y="1425"/>
      <point x="1464" y="1379"/>
    </contour>
    <contour>
      <point x="337" y="860" type="curve" smooth="yes"/>
      <point x="337" y="442"/>
      <point x="643" y="106"/>
      <point x="1066" y="106" type="curve" smooth="yes"/>
      <point x="1489" y="106"/>
      <point x="1795" y="442"/>
      <point x="1795" y="860" type="curve" smooth="yes"/>
      <point x="1795" y="1278"/>
      <point x="1489" y="1614"/>
      <point x="1066" y="1614" type="curve" smooth="yes"/>
      <point x="643" y="1614"/>
      <point x="337" y="1278"/>
    </contour>
    <contour>
      <point x="167" y="860" type="curve" smooth="yes"/>
      <point x="167" y="1358"/>
      <point x="558" y="1757"/>
      <point x="1066" y="1757" type="curve" smooth="yes"/>
      <point x="1574" y="1757"/>
      <point x="1965" y="1358"/>
      <point x="1965" y="860" type="curve" smooth="yes"/>
      <point x="1965" y="362"/>
      <point x="1574" y="-37"/>
      <point x="1066" y="-37" type="curve" smooth="yes"/>
      <point x="558" y="-37"/>
      <point x="167" y="362"/>
    </contour>
  </outline>
</glyph>
<glyph name="macron" format="1">
  <advance width="958"/>
  <unicode hex="00AF"/>
  <outline>
    <contour>
      <point x="782" y="1481.8" type="curve" smooth="yes"/>
      <point x="252" y="1481.8" type="line" smooth="yes"/>
      <point x="197" y="1481.8"/>
      <point x="170" y="1521.8"/>
      <point x="170" y="1560.8" type="curve" smooth="yes"/>
      <point x="170" y="1599.8"/>
      <point x="196" y="1637.8"/>
      <point x="246" y="1637.8" type="curve" smooth="yes"/>
      <point x="784" y="1637.8" type="line" smooth="yes"/>
      <point x="832" y="1637.8"/>
      <point x="856" y="1599.8"/>
      <point x="856" y="1560.8" type="curve" smooth="yes"/>
      <point x="856" y="1521.8"/>
      <point x="831" y="1481.8"/>
    </contour>
  </outline>
</glyph>
<glyph name="degree" format="1">
  <advance width="1195"/>
  <unicode hex="00B0"/>
  <outline>
    <contour>
      <point x="603" y="1642" type="curve" smooth="yes"/>
      <point x="845" y="1642"/>
      <point x="965" y="1461"/>
      <point x="965" y="1278" type="curve" smooth="yes"/>
      <point x="965" y="1097"/>
      <point x="839" y="912"/>
      <point x="596" y="912" type="curve" smooth="yes"/>
      <point x="353" y="912"/>
      <point x="230" y="1091"/>
      <point x="230" y="1271" type="curve" smooth="yes"/>
      <point x="230" y="1456"/>
      <point x="359" y="1642"/>
    </contour>
    <contour>
      <point x="608" y="1052" type="curve" smooth="yes"/>
      <point x="745" y="1052"/>
      <point x="810" y="1154"/>
      <point x="810" y="1274" type="curve" smooth="yes"/>
      <point x="810" y="1394"/>
      <point x="742" y="1500"/>
      <point x="602" y="1500" type="curve" smooth="yes"/>
      <point x="462" y="1500"/>
      <point x="394" y="1394"/>
      <point x="394" y="1274" type="curve" smooth="yes"/>
      <point x="394" y="1155"/>
      <point x="473" y="1052"/>
    </contour>
  </outline>
</glyph>
<glyph name="plusminus" format="1">
  <advance width="1238"/>
  <unicode hex="00B1"/>
  <outline>
    <contour>
      <point x="257" y="78" type="curve" smooth="yes"/>
      <point x="257" y="120"/>
      <point x="291" y="155"/>
      <point x="334" y="155" type="curve" smooth="yes"/>
      <point x="898" y="155" type="line" smooth="yes"/>
      <point x="941" y="155"/>
      <point x="975" y="120"/>
      <point x="975" y="78" type="curve" smooth="yes"/>
      <point x="975" y="35"/>
      <point x="941" y="0"/>
      <point x="898" y="0" type="curve" smooth="yes"/>
      <point x="334" y="0" type="line" smooth="yes"/>
      <point x="291" y="0"/>
      <point x="257" y="35"/>
    </contour>
    <contour>
      <point x="1073" y="847" type="line" smooth="yes"/>
      <point x="1114" y="847"/>
      <point x="1146" y="815"/>
      <point x="1146" y="774" type="curve" smooth="yes"/>
      <point x="1146" y="733"/>
      <point x="1114" y="700"/>
      <point x="1073" y="700" type="curve" smooth="yes"/>
      <point x="699" y="700" type="line"/>
      <point x="699" y="377" type="line" smooth="yes"/>
      <point x="699" y="333"/>
      <point x="664" y="298"/>
      <point x="620" y="298" type="curve" smooth="yes"/>
      <point x="576" y="298"/>
      <point x="541" y="333"/>
      <point x="541" y="377" type="curve" smooth="yes"/>
      <point x="541" y="700" type="line"/>
      <point x="165" y="700" type="line" smooth="yes"/>
      <point x="124" y="700"/>
      <point x="92" y="733"/>
      <point x="92" y="774" type="curve" smooth="yes"/>
      <point x="92" y="815"/>
      <point x="124" y="847"/>
      <point x="165" y="847" type="curve" smooth="yes"/>
      <point x="541" y="847" type="line"/>
      <point x="541" y="1177" type="line" smooth="yes"/>
      <point x="541" y="1221"/>
      <point x="576" y="1256"/>
      <point x="620" y="1256" type="curve" smooth="yes"/>
      <point x="664" y="1256"/>
      <point x="699" y="1221"/>
      <point x="699" y="1177" type="curve" smooth="yes"/>
      <point x="699" y="847" type="line"/>
    </contour>
  </outline>
</glyph>
<glyph name="periodcentered" format="1">
  <advance width="477"/>
  <unicode hex="00B7"/>
  <outline>
    <contour>
      <point x="233" y="711" type="curve" smooth="yes"/>
      <point x="111" y="711"/>
      <point x="22" y="801"/>
      <point x="22" y="922" type="curve" smooth="yes"/>
      <point x="22" y="1044"/>
      <point x="112" y="1133"/>
      <point x="233" y="1133" type="curve" smooth="yes"/>
      <point x="355" y="1133"/>
      <point x="444" y="1043"/>
      <point x="444" y="922" type="curve" smooth="yes"/>
      <point x="444" y="800"/>
      <point x="354" y="711"/>
    </contour>
  </outline>
</glyph>
<glyph name="ordmasculine" format="1">
  <advance width="1363"/>
  <unicode hex="00BA"/>
  <outline>
    <contour>
      <point x="659" y="661" type="curve" smooth="yes"/>
      <point x="491" y="661"/>
      <point x="395" y="541"/>
      <point x="395" y="373" type="curve" smooth="yes"/>
      <point x="395" y="203"/>
      <point x="491" y="83"/>
      <point x="659" y="83" type="curve" smooth="yes"/>
      <point x="824" y="83"/>
      <point x="916" y="207"/>
      <point x="916" y="373" type="curve" smooth="yes"/>
      <point x="916" y="539"/>
      <point x="824" y="661"/>
    </contour>
    <contour>
      <point x="659" y="-30" type="curve" smooth="yes"/>
      <point x="414" y="-30"/>
      <point x="248" y="127"/>
      <point x="248" y="373" type="curve" smooth="yes"/>
      <point x="248" y="620"/>
      <point x="414" y="774"/>
      <point x="659" y="774" type="curve" smooth="yes"/>
      <point x="901" y="774"/>
      <point x="1062" y="615"/>
      <point x="1062" y="373" type="curve" smooth="yes"/>
      <point x="1062" y="130"/>
      <point x="901" y="-30"/>
    </contour>
  </outline>
</glyph>
<glyph name="divide" format="1">
  <advance width="996"/>
  <unicode hex="00F7"/>
  <outline>
    <contour>
      <point x="25" y="809" type="curve" smooth="yes"/>
      <point x="25" y="864"/>
      <point x="71" y="911"/>
      <point x="127" y="911" type="curve" smooth="yes"/>
      <point x="869" y="911" type="line" smooth="yes"/>
      <point x="925" y="911"/>
      <point x="971" y="864"/>
      <point x="971" y="809" type="curve" smooth="yes"/>
      <point x="971" y="752"/>
      <point x="926" y="706"/>
      <point x="869" y="706" type="curve" smooth="yes"/>
      <point x="127" y="706" type="line" smooth="yes"/>
      <point x="70" y="706"/>
      <point x="25" y="752"/>
    </contour>
    <contour>
      <point x="494" y="314" type="curve" smooth="yes"/>
      <point x="409" y="314"/>
      <point x="347" y="376"/>
      <point x="347" y="460" type="curve" smooth="yes"/>
      <point x="347" y="544"/>
      <point x="410" y="606"/>
      <point x="494" y="606" type="curve" smooth="yes"/>
      <point x="578" y="606"/>
      <point x="640" y="543"/>
      <point x="640" y="460" type="curve" smooth="yes"/>
      <point x="640" y="376"/>
      <point x="578" y="314"/>
    </contour>
    <contour>
      <point x="494" y="1012" type="curve" smooth="yes"/>
      <point x="409" y="1012"/>
      <point x="347" y="1074"/>
      <point x="347" y="1158" type="curve" smooth="yes"/>
      <point x="347" y="1242"/>
      <point x="410" y="1304"/>
      <point x="494" y="1304" type="curve" smooth="yes"/>
      <point x="578" y="1304"/>
      <point x="640" y="1241"/>
      <point x="640" y="1158" type="curve" smooth="yes"/>
      <point x="640" y="1074"/>
      <point x="578" y="1012"/>
    </contour>
  </outline>
</glyph>
<glyph name="circumflex" format="1">
  <advance width="654"/>
  <unicode hex="02C6"/>
  <outline>
    <contour>
      <point x="296" y="1932" type="curve" smooth="yes"/>
      <point x="315" y="1932"/>
      <point x="334" y="1926"/>
      <point x="342" y="1915" type="curve" smooth="yes"/>
      <point x="612" y="1501" type="line"/>
      <point x="619" y="1493"/>
      <point x="622" y="1484"/>
      <point x="622" y="1476" type="curve" smooth="yes"/>
      <point x="622" y="1452"/>
      <point x="595" y="1433"/>
      <point x="568" y="1433" type="curve" smooth="yes"/>
      <point x="556" y="1433"/>
      <point x="542" y="1435"/>
      <point x="534" y="1446" type="curve" smooth="yes"/>
      <point x="296" y="1752" type="line"/>
      <point x="58" y="1446" type="line" smooth="yes"/>
      <point x="50" y="1435"/>
      <point x="36" y="1433"/>
      <point x="24" y="1433" type="curve" smooth="yes"/>
      <point x="-3" y="1433"/>
      <point x="-30" y="1452"/>
      <point x="-30" y="1476" type="curve" smooth="yes"/>
      <point x="-30" y="1484"/>
      <point x="-27" y="1493"/>
      <point x="-20" y="1501" type="curve"/>
      <point x="250" y="1915" type="line" smooth="yes"/>
      <point x="258" y="1926"/>
      <point x="277" y="1932"/>
    </contour>
  </outline>
</glyph>
<glyph name="caron" format="1">
  <advance width="654"/>
  <unicode hex="02C7"/>
  <outline>
    <contour>
      <point x="296" y="1433" type="curve" smooth="yes"/>
      <point x="277" y="1433"/>
      <point x="258" y="1439"/>
      <point x="250" y="1450" type="curve" smooth="yes"/>
      <point x="-20" y="1864" type="line"/>
      <point x="-27" y="1872"/>
      <point x="-30" y="1881"/>
      <point x="-30" y="1889" type="curve" smooth="yes"/>
      <point x="-30" y="1913"/>
      <point x="-3" y="1932"/>
      <point x="24" y="1932" type="curve" smooth="yes"/>
      <point x="36" y="1932"/>
      <point x="50" y="1930"/>
      <point x="58" y="1919" type="curve" smooth="yes"/>
      <point x="296" y="1613" type="line"/>
      <point x="534" y="1919" type="line" smooth="yes"/>
      <point x="542" y="1930"/>
      <point x="556" y="1932"/>
      <point x="568" y="1932" type="curve" smooth="yes"/>
      <point x="595" y="1932"/>
      <point x="622" y="1913"/>
      <point x="622" y="1889" type="curve" smooth="yes"/>
      <point x="622" y="1881"/>
      <point x="619" y="1872"/>
      <point x="612" y="1864" type="curve"/>
      <point x="342" y="1450" type="line" smooth="yes"/>
      <point x="334" y="1439"/>
      <point x="315" y="1433"/>
    </contour>
  </outline>
</glyph>
<glyph name="breve" format="1">
  <advance width="654"/>
  <unicode hex="02D8"/>
  <outline>
    <contour>
      <point x="88" y="1767" type="curve" smooth="yes"/>
      <point x="134" y="1647"/>
      <point x="215" y="1587"/>
      <point x="296" y="1587" type="curve" smooth="yes"/>
      <point x="377" y="1587"/>
      <point x="458" y="1647"/>
      <point x="504" y="1767" type="curve" smooth="yes"/>
      <point x="510" y="1783"/>
      <point x="524" y="1788"/>
      <point x="537" y="1788" type="curve" smooth="yes"/>
      <point x="563" y="1788"/>
      <point x="592" y="1763"/>
      <point x="592" y="1741" type="curve" smooth="yes"/>
      <point x="592" y="1530"/>
      <point x="444" y="1424"/>
      <point x="296" y="1424" type="curve" smooth="yes"/>
      <point x="148" y="1424"/>
      <point x="0" y="1530"/>
      <point x="0" y="1741" type="curve" smooth="yes"/>
      <point x="0" y="1763"/>
      <point x="29" y="1788"/>
      <point x="55" y="1788" type="curve" smooth="yes"/>
      <point x="68" y="1788"/>
      <point x="82" y="1783"/>
    </contour>
  </outline>
</glyph>
<glyph name="dotaccent" format="1">
  <advance width="322"/>
  <unicode hex="02D9"/>
  <outline>
    <contour>
      <point x="306" y="396" type="curve" smooth="yes"/>
      <point x="306" y="319"/>
      <point x="246" y="240"/>
      <point x="157" y="240" type="curve" smooth="yes"/>
      <point x="60" y="240"/>
      <point x="7" y="319"/>
      <point x="7" y="396" type="curve" smooth="yes"/>
      <point x="7" y="469"/>
      <point x="55" y="541"/>
      <point x="159" y="541" type="curve" smooth="yes"/>
      <point x="251" y="541"/>
      <point x="306" y="470"/>
    </contour>
  </outline>
</glyph>
<glyph name="ring" format="1">
  <advance width="352"/>
  <unicode hex="02DA"/>
  <outline>
    <contour>
      <point x="158" y="1975.8" type="curve" smooth="yes"/>
      <point x="323" y="1975.8"/>
      <point x="405" y="1851.8"/>
      <point x="405" y="1727.8" type="curve" smooth="yes"/>
      <point x="405" y="1603.8"/>
      <point x="319" y="1477.8"/>
      <point x="153" y="1477.8" type="curve" smooth="yes"/>
      <point x="-13" y="1477.8"/>
      <point x="-97" y="1599.8"/>
      <point x="-97" y="1722.8" type="curve" smooth="yes"/>
      <point x="-97" y="1848.8"/>
      <point x="-9" y="1975.8"/>
    </contour>
    <contour>
      <point x="161" y="1572.8" type="curve" smooth="yes"/>
      <point x="255" y="1572.8"/>
      <point x="299" y="1642.8"/>
      <point x="299" y="1724.8" type="curve" smooth="yes"/>
      <point x="299" y="1806.8"/>
      <point x="252" y="1878.8"/>
      <point x="157" y="1878.8" type="curve" smooth="yes"/>
      <point x="61" y="1878.8"/>
      <point x="15" y="1806.8"/>
      <point x="15" y="1724.8" type="curve" smooth="yes"/>
      <point x="15" y="1643.8"/>
      <point x="69" y="1572.8"/>
    </contour>
  </outline>
</glyph>
<glyph name="tilde" format="1">
  <advance width="1143"/>
  <unicode hex="02DC"/>
  <outline>
    <contour>
      <point x="141" y="1539.8" type="curve" smooth="yes"/>
      <point x="141" y="1694.8"/>
      <point x="225" y="1804.8"/>
      <point x="331" y="1804.8" type="curve" smooth="yes"/>
      <point x="486" y="1804.8"/>
      <point x="602" y="1662.8"/>
      <point x="658" y="1662.8" type="curve" smooth="yes"/>
      <point x="747" y="1662.8"/>
      <point x="750" y="1804.8"/>
      <point x="799" y="1804.8" type="curve" smooth="yes"/>
      <point x="838" y="1804.8"/>
      <point x="872" y="1786.8"/>
      <point x="872" y="1750.8" type="curve" smooth="yes"/>
      <point x="872" y="1595.8"/>
      <point x="772" y="1486.8"/>
      <point x="646" y="1486.8" type="curve" smooth="yes"/>
      <point x="530" y="1486.8"/>
      <point x="417" y="1627.8"/>
      <point x="340" y="1627.8" type="curve" smooth="yes"/>
      <point x="255" y="1627.8"/>
      <point x="255" y="1486.8"/>
      <point x="214" y="1486.8" type="curve" smooth="yes"/>
      <point x="175" y="1486.8"/>
      <point x="141" y="1503.8"/>
    </contour>
  </outline>
</glyph>
<glyph name="uni0307" format="1">
  <advance width="322"/>
  <unicode hex="0307"/>
  <outline>
    <contour>
      <point x="300" y="206" type="curve" smooth="yes"/>
      <point x="300" y="129"/>
      <point x="240" y="50"/>
      <point x="151" y="50" type="curve" smooth="yes"/>
      <point x="54" y="50"/>
      <point x="1" y="129"/>
      <point x="1" y="206" type="curve" smooth="yes"/>
      <point x="1" y="279"/>
      <point x="49" y="351"/>
      <point x="153" y="351" type="curve" smooth="yes"/>
      <point x="245" y="351"/>
      <point x="300" y="280"/>
    </contour>
  </outline>
</glyph>
<glyph name="uni0311" format="1">
  <advance width="654"/>
  <unicode hex="0311"/>
  <outline>
    <contour>
      <point x="53" y="1382" type="curve" smooth="yes"/>
      <point x="27" y="1382"/>
      <point x="0" y="1399"/>
      <point x="0" y="1423" type="curve" smooth="yes"/>
      <point x="0" y="1635"/>
      <point x="148" y="1745"/>
      <point x="296" y="1745" type="curve" smooth="yes"/>
      <point x="444" y="1745"/>
      <point x="592" y="1634"/>
      <point x="592" y="1423" type="curve" smooth="yes"/>
      <point x="592" y="1399"/>
      <point x="565" y="1382"/>
      <point x="539" y="1382" type="curve" smooth="yes"/>
      <point x="521" y="1382"/>
      <point x="503" y="1390"/>
      <point x="496" y="1410" type="curve" smooth="yes"/>
      <point x="450" y="1531"/>
      <point x="377" y="1583"/>
      <point x="296" y="1583" type="curve" smooth="yes"/>
      <point x="215" y="1583"/>
      <point x="142" y="1531"/>
      <point x="96" y="1410" type="curve" smooth="yes"/>
      <point x="89" y="1390"/>
      <point x="71" y="1382"/>
    </contour>
  </outline>
</glyph>
<glyph name="endash" format="1">
  <advance width="1237"/>
  <unicode hex="2013"/>
  <outline>
    <contour>
      <point x="1072" y="781" type="line" smooth="yes"/>
      <point x="1130" y="781"/>
      <point x="1178" y="733"/>
      <point x="1178" y="675" type="curve" smooth="yes"/>
      <point x="1178" y="616"/>
      <point x="1130" y="569"/>
      <point x="1072" y="569" type="curve" smooth="yes"/>
      <point x="165" y="569" type="line" smooth="yes"/>
      <point x="106" y="569"/>
      <point x="59" y="616"/>
      <point x="59" y="675" type="curve" smooth="yes"/>
      <point x="59" y="733"/>
      <point x="106" y="781"/>
      <point x="165" y="781" type="curve" smooth="yes"/>
    </contour>
  </outline>
</glyph>
<glyph name="emdash" format="1">
  <advance width="1449"/>
  <unicode hex="2014"/>
  <outline>
    <contour>
      <point x="1340" y="781" type="line" smooth="yes"/>
      <point x="1398" y="781"/>
      <point x="1446" y="733"/>
      <point x="1446" y="675" type="curve" smooth="yes"/>
      <point x="1446" y="616"/>
      <point x="1398" y="569"/>
      <point x="1340" y="569" type="curve" smooth="yes"/>
      <point x="105" y="569" type="line" smooth="yes"/>
      <point x="46" y="569"/>
      <point x="-1" y="616"/>
      <point x="-1" y="675" type="curve" smooth="yes"/>
      <point x="-1" y="733"/>
      <point x="46" y="781"/>
      <point x="105" y="781" type="curve" smooth="yes"/>
    </contour>
  </outline>
</glyph>
<glyph name="dagger" format="1">
  <advance width="1237"/>
  <unicode hex="2020"/>
  <outline>
    <contour>
      <point x="1023" y="1255" type="line" smooth="yes"/>
      <point x="1067" y="1255"/>
      <point x="1103" y="1219"/>
      <point x="1103" y="1175" type="curve" smooth="yes"/>
      <point x="1103" y="1131"/>
      <point x="1067" y="1094"/>
      <point x="1023" y="1094" type="curve" smooth="yes"/>
      <point x="695" y="1094" type="line"/>
      <point x="695" y="-98" type="line" smooth="yes"/>
      <point x="695" y="-140"/>
      <point x="647" y="-164"/>
      <point x="607" y="-164" type="curve" smooth="yes"/>
      <point x="555" y="-164"/>
      <point x="519" y="-142"/>
      <point x="519" y="-82" type="curve" smooth="yes"/>
      <point x="519" y="1094" type="line"/>
      <point x="213" y="1094" type="line" smooth="yes"/>
      <point x="169" y="1094"/>
      <point x="133" y="1131"/>
      <point x="133" y="1175" type="curve" smooth="yes"/>
      <point x="133" y="1219"/>
      <point x="169" y="1255"/>
      <point x="213" y="1255" type="curve" smooth="yes"/>
      <point x="519" y="1255" type="line"/>
      <point x="519" y="1769" type="line" smooth="yes"/>
      <point x="519" y="1817"/>
      <point x="563" y="1841"/>
      <point x="609" y="1841" type="curve" smooth="yes"/>
      <point x="658" y="1841"/>
      <point x="690" y="1815"/>
      <point x="695" y="1769" type="curve"/>
      <point x="695" y="1255" type="line"/>
    </contour>
  </outline>
</glyph>
<glyph name="daggerdbl" format="1">
  <advance width="1237"/>
  <unicode hex="2021"/>
  <outline>
    <contour>
      <point x="963" y="1255" type="line" smooth="yes"/>
      <point x="1007" y="1255"/>
      <point x="1043" y="1219"/>
      <point x="1043" y="1175" type="curve" smooth="yes"/>
      <point x="1043" y="1131"/>
      <point x="1007" y="1094"/>
      <point x="963" y="1094" type="curve" smooth="yes"/>
      <point x="695" y="1094" type="line"/>
      <point x="695" y="538" type="line"/>
      <point x="963" y="538" type="line" smooth="yes"/>
      <point x="1007" y="538"/>
      <point x="1043" y="501"/>
      <point x="1043" y="457" type="curve" smooth="yes"/>
      <point x="1043" y="413"/>
      <point x="1007" y="377"/>
      <point x="963" y="377" type="curve" smooth="yes"/>
      <point x="695" y="377" type="line"/>
      <point x="695" y="-98" type="line" smooth="yes"/>
      <point x="695" y="-140"/>
      <point x="647" y="-164"/>
      <point x="607" y="-164" type="curve" smooth="yes"/>
      <point x="555" y="-164"/>
      <point x="519" y="-142"/>
      <point x="519" y="-82" type="curve" smooth="yes"/>
      <point x="519" y="377" type="line"/>
      <point x="273" y="377" type="line" smooth="yes"/>
      <point x="229" y="377"/>
      <point x="193" y="413"/>
      <point x="193" y="457" type="curve" smooth="yes"/>
      <point x="193" y="501"/>
      <point x="229" y="538"/>
      <point x="273" y="538" type="curve" smooth="yes"/>
      <point x="519" y="538" type="line"/>
      <point x="519" y="1094" type="line"/>
      <point x="273" y="1094" type="line" smooth="yes"/>
      <point x="229" y="1094"/>
      <point x="193" y="1131"/>
      <point x="193" y="1175" type="curve" smooth="yes"/>
      <point x="193" y="1219"/>
      <point x="229" y="1255"/>
      <point x="273" y="1255" type="curve" smooth="yes"/>
      <point x="519" y="1255" type="line"/>
      <point x="519" y="1769" type="line" smooth="yes"/>
      <point x="519" y="1817"/>
      <point x="563" y="1841"/>
      <point x="609" y="1841" type="curve" smooth="yes"/>
      <point x="658" y="1841"/>
      <point x="690" y="1815"/>
      <point x="695" y="1769" type="curve"/>
      <point x="695" y="1255" type="line"/>
    </contour>
  </outline>
</glyph>
<glyph name="bullet" format="1">
  <advance width="1143"/>
  <unicode hex="2022"/>
  <outline>
    <contour>
      <point x="551" y="289" type="curve" smooth="yes"/>
      <point x="334" y="289"/>
      <point x="193" y="427"/>
      <point x="193" y="643" type="curve" smooth="yes"/>
      <point x="193" y="860"/>
      <point x="335" y="997"/>
      <point x="551" y="997" type="curve" smooth="yes"/>
      <point x="761" y="997"/>
      <point x="898" y="853"/>
      <point x="898" y="643" type="curve" smooth="yes"/>
      <point x="898" y="432"/>
      <point x="760" y="289"/>
    </contour>
  </outline>
</glyph>
<glyph name="foundryicon" format="1">
  <advance width="1275"/>
  <outline>
    <contour>
      <point x="608" y="375" type="curve"/>
      <point x="399" y="202"/>
      <point x="290" y="115"/>
      <point x="282" y="115" type="curve" smooth="yes"/>
      <point x="259" y="115"/>
      <point x="247" y="124"/>
      <point x="247" y="141" type="curve" smooth="yes"/>
      <point x="247" y="156"/>
      <point x="257" y="171"/>
      <point x="262" y="186" type="curve" smooth="yes"/>
      <point x="380" y="542" type="line"/>
      <point x="176" y="703"/>
      <point x="70" y="786"/>
      <point x="55" y="799" type="curve" smooth="yes"/>
      <point x="41" y="811"/>
      <point x="34" y="825"/>
      <point x="34" y="840" type="curve" smooth="yes"/>
      <point x="34" y="860"/>
      <point x="47" y="870"/>
      <point x="73" y="870" type="curve" smooth="yes"/>
      <point x="74" y="870"/>
      <point x="212" y="860"/>
      <point x="485" y="840" type="curve"/>
      <point x="554" y="1007"/>
      <point x="594" y="1105"/>
      <point x="605" y="1134" type="curve" smooth="yes"/>
      <point x="626" y="1194"/>
      <point x="646" y="1235"/>
      <point x="682" y="1235" type="curve" smooth="yes"/>
      <point x="701" y="1235"/>
      <point x="731" y="1204"/>
      <point x="731" y="1188" type="curve"/>
      <point x="794" y="848" type="line"/>
      <point x="1187" y="848" type="line" smooth="yes"/>
      <point x="1223" y="848"/>
      <point x="1241" y="834"/>
      <point x="1241" y="807" type="curve" smooth="yes"/>
      <point x="1241" y="802"/>
      <point x="1234" y="795"/>
      <point x="1221" y="786" type="curve" smooth="yes"/>
      <point x="1208" y="777"/>
      <point x="1100" y="689"/>
      <point x="897" y="522" type="curve"/>
      <point x="961" y="259"/>
      <point x="991" y="122"/>
      <point x="991" y="106" type="curve" smooth="yes"/>
      <point x="991" y="86"/>
      <point x="978" y="72"/>
      <point x="958" y="72" type="curve" smooth="yes"/>
      <point x="947" y="72"/>
      <point x="830" y="173"/>
    </contour>
  </outline>
</glyph>
